<svg xmlns="http://www.w3.org/2000/svg" xmlns:xlink="http://www.w3.org/1999/xlink" width="113" height="135" viewBox="0 0 113 135">
  <defs>
    <linearGradient id="linear-gradient" x1="0.691" y1="2.081" x2="0.695" gradientUnits="objectBoundingBox">
      <stop offset="0" stop-color="#3e348e"/>
      <stop offset="1" stop-color="#825ee3"/>
    </linearGradient>
    <linearGradient id="linear-gradient-2" x1="0.449" y1="1.239" x2="0.453" y2="0.5" gradientUnits="objectBoundingBox">
      <stop offset="0" stop-color="#3e348e"/>
      <stop offset="1" stop-color="#1f1a47"/>
    </linearGradient>
    <linearGradient id="linear-gradient-3" x1="0.02" y1="-8.908" x2="0.985" y2="-9.926" gradientUnits="objectBoundingBox">
      <stop offset="0" stop-color="#fcfcff"/>
      <stop offset="0.186" stop-color="#fcfcff"/>
      <stop offset="0.582" stop-color="#dfe6fe"/>
      <stop offset="0.927" stop-color="#c7d0ef"/>
      <stop offset="1" stop-color="#fcfcff"/>
    </linearGradient>
    <linearGradient id="linear-gradient-4" x1="0.5" x2="0.521" y2="1.084" gradientUnits="objectBoundingBox">
      <stop offset="0" stop-color="#3e348e"/>
      <stop offset="1" stop-color="#5e73e4"/>
    </linearGradient>
    <linearGradient id="linear-gradient-5" x1="0.622" y1="0.066" x2="0.5" y2="1.605" gradientUnits="objectBoundingBox">
      <stop offset="0" stop-color="#fcfcff"/>
      <stop offset="1" stop-color="#dfe6fe"/>
    </linearGradient>
    <linearGradient id="linear-gradient-6" y1="-0.306" x2="0.5" y2="1.129" xlink:href="#linear-gradient-4"/>
    <linearGradient id="linear-gradient-7" x1="0.662" y1="1.225" x2="0.65" y2="-0.127" gradientUnits="objectBoundingBox">
      <stop offset="0" stop-color="#5e73e4"/>
      <stop offset="1" stop-color="#3e348e"/>
    </linearGradient>
    <linearGradient id="linear-gradient-8" x1="0.5" y1="0.231" x2="0.5" y2="1" gradientUnits="objectBoundingBox">
      <stop offset="0" stop-color="#dfe6fe"/>
      <stop offset="1" stop-color="#7e90f0"/>
    </linearGradient>
    <radialGradient id="radial-gradient" cx="0.507" cy="0.23" r="1.389" gradientTransform="translate(-0.01 0.024) rotate(-2.684)" gradientUnits="objectBoundingBox">
      <stop offset="0" stop-color="#7467e4"/>
      <stop offset="0.241" stop-color="#c7d0ef"/>
      <stop offset="0.773" stop-color="#7e90f0"/>
      <stop offset="1" stop-color="#7467e4"/>
    </radialGradient>
    <linearGradient id="linear-gradient-10" x1="0.5" y1="1.579" x2="0.437" y2="-0.933" gradientUnits="objectBoundingBox">
      <stop offset="0" stop-color="#c7d0ef"/>
      <stop offset="1" stop-color="#7e90f0"/>
    </linearGradient>
    <linearGradient id="linear-gradient-11" x1="0.559" y1="1.309" y2="-0.356" xlink:href="#linear-gradient-8"/>
    <radialGradient id="radial-gradient-2" cx="0.499" cy="0.501" r="0.476" gradientTransform="matrix(1.112, 0, 0, -1, 1.888, 13.202)" gradientUnits="objectBoundingBox">
      <stop offset="0" stop-color="#7e90f0"/>
      <stop offset="1" stop-color="#3e348e"/>
    </radialGradient>
    <radialGradient id="radial-gradient-3" cx="0.499" cy="0.501" r="0.475" gradientTransform="matrix(1.112, 0, 0, -1, 2.05, 13.202)" xlink:href="#radial-gradient-2"/>
    <linearGradient id="linear-gradient-12" x1="0.706" y1="0.405" x2="1.251" y2="-0.861" xlink:href="#linear-gradient-8"/>
    <linearGradient id="linear-gradient-13" y1="-0.373" x2="0.5" y2="0.815" gradientUnits="objectBoundingBox">
      <stop offset="0" stop-color="#7e90f0"/>
      <stop offset="1" stop-color="#fcfcff"/>
    </linearGradient>
    <radialGradient id="radial-gradient-4" cx="0.5" cy="0.5" r="0.531" gradientTransform="matrix(0.89, 0, 0, -1, -0.844, 6.8)" gradientUnits="objectBoundingBox">
      <stop offset="0" stop-color="#5e73e4"/>
      <stop offset="1" stop-color="#7e90f0"/>
    </radialGradient>
    <linearGradient id="linear-gradient-14" x1="0.551" y1="1.316" x2="0.5" y2="-0.393" gradientUnits="objectBoundingBox">
      <stop offset="0" stop-color="#5e73e4"/>
      <stop offset="1" stop-color="#dfe6fe"/>
    </linearGradient>
    <linearGradient id="linear-gradient-15" x1="0.5" y1="1.252" x2="0.497" y2="-0.394" xlink:href="#linear-gradient-14"/>
    <linearGradient id="linear-gradient-16" x1="0.236" y1="-1.689" x2="0.991" y2="-1.706" gradientUnits="objectBoundingBox">
      <stop offset="0" stop-color="#3e348e"/>
      <stop offset="1" stop-color="#140e45"/>
    </linearGradient>
    <radialGradient id="radial-gradient-5" cx="0.499" cy="0.502" r="0.947" gradientTransform="matrix(0.402, 0, 0, -1, -6.443, 17.554)" gradientUnits="objectBoundingBox">
      <stop offset="0" stop-color="#fcfcff"/>
      <stop offset="0.814" stop-color="#dfe6fe"/>
      <stop offset="1" stop-color="#fcfcff"/>
    </radialGradient>
    <linearGradient id="linear-gradient-17" x1="0.493" y1="-0.089" x2="0.5" y2="1.568" gradientUnits="objectBoundingBox">
      <stop offset="0" stop-color="#140e45"/>
      <stop offset="1" stop-color="#7e90f0"/>
    </linearGradient>
  </defs>
  <g id="Group_134" data-name="Group 134" transform="translate(-40 -135)">
    <path id="Rectangle_Cats" data-name="Rectangle Cats" d="M15,0H98a15,15,0,0,1,15,15V120a15,15,0,0,1-15,15H15A15,15,0,0,1,0,120V15A15,15,0,0,1,15,0Z" transform="translate(40 135)" fill="url(#linear-gradient)"/>
    <g id="Cat_svg" data-name="Cat svg" transform="translate(-80.8 -58.118)">
      <path id="Path_90" data-name="Path 90" d="M176.282,477.225c21.795,0,39.482-4.887,39.482-10.912S198.107,455.4,176.282,455.4c-21.795,0-39.482,4.887-39.482,10.912S154.488,477.225,176.282,477.225Z" transform="translate(0 -163.901)" fill="url(#linear-gradient-2)"/>
      <path id="Path_91" data-name="Path 91" d="M198.809,461.7s-11.362,1.049-10.762,6.565,12.171,3.957,13.88-.3Z" transform="translate(-35.867 -168.312)" fill="url(#linear-gradient-3)"/>
      <path id="Path_92" data-name="Path 92" d="M251.532,401.236c0,22.065-9.054,20.985-20.266,20.985-11.152,0-20.266,1.109-20.266-20.985s20.266-6.955,20.266-6.955S251.532,379.172,251.532,401.236Z" transform="translate(-51.956 -117.561)" fill="url(#linear-gradient-4)"/>
      <path id="Path_93" data-name="Path 93" d="M250,373.94s-7.315-5.516-12.2-3.807a29.534,29.534,0,0,0-.6,5.666c0,15.019,5.7,22.274,12.771,22.274,7.045,0,12.771-7.255,12.771-22.274a26.9,26.9,0,0,0-.6-5.666C257.316,368.424,250,373.94,250,373.94Z" transform="translate(-70.301 -103.966)" fill="url(#linear-gradient-5)"/>
      <path id="Path_94" data-name="Path 94" d="M222.1,478.6h-1.5a2.3,2.3,0,0,0-2.1,2.4v.45a2.261,2.261,0,0,0,2.1,2.4h4.647a2.3,2.3,0,0,0,2.1-2.4V481a2.261,2.261,0,0,0-2.1-2.4H222.1Z" transform="translate(-57.207 -180.145)" fill="url(#linear-gradient-6)"/>
      <path id="Path_95" data-name="Path 95" d="M315.1,478.6h-1.5a2.3,2.3,0,0,0-2.1,2.4v.45a2.261,2.261,0,0,0,2.1,2.4h4.647a2.3,2.3,0,0,0,2.1-2.4V481a2.261,2.261,0,0,0-2.1-2.4H315.1Z" transform="translate(-122.327 -180.145)" fill="url(#linear-gradient-7)"/>
      <path id="Path_96" data-name="Path 96" d="M248.34,316.965a21.4,21.4,0,0,0,13.371-4.647c-4.167-9.653-13.55-16.518-13.55-16.518s-9.263,6.745-13.461,16.279A21.473,21.473,0,0,0,248.34,316.965Z" transform="translate(-68.551 -52.147)" fill="#9798a1"/>
      <path id="Path_97" data-name="Path 97" d="M256.48,329.586c1.559-1.859,2.458-4.857,2.458-9.653,0-13.311-15.469-24.133-15.469-24.133S228,306.592,228,319.9c0,4.917.959,7.914,2.548,9.773l2.908,20.086v4.647c.09,2.308,2.009,3.3,4.317,3.208s2.968.3,4.017-1.589v-6.655a2.689,2.689,0,0,0-.06-.66l-2.758-16.159c1.439.06,2.968,0,4.5,0,1.589,0,3.148,0,4.617-.06l-2.758,16.159a2.459,2.459,0,0,0-.06.66v6.475c1.439,2.308,1.709.689,4.017.749,2.308.09,4.2.06,4.317-2.248v-4.647Z" transform="translate(-63.859 -52.147)" fill="url(#linear-gradient-8)"/>
      <path id="Path_98" data-name="Path 98" d="M245.89,330.61c5.366,0,13.071-3.747,14.51-11.122a24.649,24.649,0,0,0-1.5-4.017A59.258,59.258,0,0,0,245.68,301.5a61.151,61.151,0,0,0-13.191,13.94A22.8,22.8,0,0,0,231.2,318.8C233.478,326.472,240.284,330.61,245.89,330.61Z" transform="translate(-66.1 -57.138)" fill="url(#radial-gradient)"/>
      <path id="Path_99" data-name="Path 99" d="M187.958,456.71s-.21-.749.15-4.707c.3-3.6.6-8,2.039-6.505,1.5,1.5,3.747,7.555,3.9,11.962C194.253,461.866,188.2,460.007,187.958,456.71Z" transform="translate(-35.779 -156.756)" fill="url(#linear-gradient-3)"/>
      <path id="Path_100" data-name="Path 100" d="M239.5,486.4H238a2.3,2.3,0,0,0-2.1,2.4v.45a2.261,2.261,0,0,0,2.1,2.4h7.255a2.3,2.3,0,0,0,2.1-2.4v-.45a2.261,2.261,0,0,0-2.1-2.4H239.5Z" transform="translate(-69.391 -185.607)" fill="url(#linear-gradient-10)"/>
      <path id="Path_101" data-name="Path 101" d="M289,486.4h-1.5a2.3,2.3,0,0,0-2.1,2.4v.45a2.261,2.261,0,0,0,2.1,2.4h7.255a2.3,2.3,0,0,0,2.1-2.4v-.45a2.261,2.261,0,0,0-2.1-2.4H289Z" transform="translate(-104.051 -185.607)" fill="url(#linear-gradient-11)"/>
      <path id="Path_102" data-name="Path 102" d="M210.705,223.507c-.749-2.009-.3-2.488,1.739-2.009,7.4,1.709,12.951,5.606,12.921,7.015-.06,2.158,3.118,1.739,1.409,3.058L216.7,239.066c-1.709,1.289-2.039,1.709-2.4-.45A73.524,73.524,0,0,0,210.705,223.507Z" transform="translate(-51.511)" fill="url(#radial-gradient-2)"/>
      <path id="Path_103" data-name="Path 103" d="M310.288,223.507c.749-2.009.3-2.488-1.739-2.009-7.4,1.709-12.951,5.606-12.921,7.015.06,2.158-3.118,1.739-1.409,3.058l10.073,7.495c1.709,1.289,2.039,1.709,2.4-.45A73.526,73.526,0,0,1,310.288,223.507Z" transform="translate(-109.873)" fill="url(#radial-gradient-3)"/>
      <path id="Path_104" data-name="Path 104" d="M315.95,229.934c.51-1.409.21-1.739-1.259-1.409-5.156,1.2-9.024,3.9-8.964,4.857.06,1.5-2.159,1.2-.959,2.1l7.015,5.216c1.2.9,1.439,1.139,1.649-.3A51.617,51.617,0,0,1,315.95,229.934Z" transform="translate(-117.364 -4.958)" fill="url(#linear-gradient-12)"/>
      <path id="Path_105" data-name="Path 105" d="M217.062,229.934c-.51-1.409-.21-1.739,1.259-1.409,5.156,1.2,9.024,3.9,8.964,4.857-.06,1.5,2.158,1.2.959,2.1l-7.015,5.216c-1.2.9-1.439,1.139-1.649-.3A59.942,59.942,0,0,0,217.062,229.934Z" transform="translate(-56.039 -4.958)" fill="url(#linear-gradient-13)"/>
      <path id="Path_106" data-name="Path 106" d="M254.213,259.258a17.048,17.048,0,0,1-17.058,17.058h-4.2a17.058,17.058,0,0,1,0-34.116h4.2A17.087,17.087,0,0,1,254.213,259.258Z" transform="translate(-55.387 -14.616)" fill="url(#radial-gradient-4)"/>
      <path id="Path_108" data-name="Path 108" d="M231.719,242.5a16.6,16.6,0,0,0-7.165,2.1,3.539,3.539,0,0,0-2.308-1.349c0,.45.21,1.289-.45,1.5-.45,0-.66-.45-.839-.66-.45.45,0,1.289-.45,1.709-.21.21-.66,0-.839-.21a11.994,11.994,0,0,0,.15,2.908,17.057,17.057,0,0,0,8.934,27.551c2.758-4.5,4.557-11.962,4.557-20.416A47.769,47.769,0,0,0,231.719,242.5Z" transform="translate(-55.317 -14.826)" fill="url(#linear-gradient-14)"/>
      <path id="Path_109" data-name="Path 109" d="M298.851,248.686a10.086,10.086,0,0,0,.15-3c-.21.21-.66.45-.839.21-.45-.45,0-1.289-.45-1.709-.21.21-.45.66-.839.66-.66-.21-.45-1.049-.45-1.5a3.586,3.586,0,0,0-2.338,1.409,16.919,16.919,0,0,0-7.195-2.158,52.934,52.934,0,0,0-1.589,13.161c0,8.424,1.8,15.859,4.557,20.416a17.067,17.067,0,0,0,8.994-27.491Z" transform="translate(-103.981 -14.896)" fill="url(#linear-gradient-15)"/>
      <path id="Path_111" data-name="Path 111" d="M246.247,296.306c.9,0,1.589-1.139,1.559-2.518s-.749-2.488-1.649-2.488-1.589,1.139-1.559,2.518C244.658,295.2,245.377,296.306,246.247,296.306Z" transform="translate(-75.48 -48.996)" fill="#3e348e"/>
      <path id="Path_112" data-name="Path 112" d="M305.947,296.306c.9,0,1.589-1.139,1.559-2.518s-.749-2.488-1.649-2.488-1.589,1.139-1.559,2.518S305.047,296.306,305.947,296.306Z" transform="translate(-117.283 -48.996)" fill="#3e348e"/>
      <path id="Path_113" data-name="Path 113" d="M268.882,327.666c-.839-.839-1.739-1.739-2.638-2.488a3.656,3.656,0,0,0-2.4-.989h-.09c-2.039.09-3.957,1.859-5.306,3.208a16.546,16.546,0,0,0-1.649,1.889,20.242,20.242,0,0,0,7.015,1.2,21.743,21.743,0,0,0,6.415-.959A11.415,11.415,0,0,0,268.882,327.666Z" transform="translate(-84.025 -71.022)" fill="url(#linear-gradient-16)"/>
      <path id="Path_114" data-name="Path 114" d="M257.242,312.708a22.537,22.537,0,0,0-9.2-2.308,21.214,21.214,0,0,0-9.2,2.308c-3.3,1.739-5.546,2.458-3.867,4.647s5.816,5.546,9.2,3.3a13.531,13.531,0,0,0,3.9-4.8,14.473,14.473,0,0,0,3.9,4.8c3.358,2.248,7.495-1.109,9.2-3.3C262.818,315.167,260.6,314.477,257.242,312.708Z" transform="translate(-68.339 -62.37)" fill="url(#radial-gradient-5)"/>
      <path id="Path_115" data-name="Path 115" d="M277.477,308.209c0,.6-1.889,1.8-1.889,1.8s-1.889-1.139-1.889-1.8c0-.6.839-1.109,1.889-1.109C276.608,307.1,277.477,307.61,277.477,308.209Z" transform="translate(-95.859 -60.059)" fill="url(#linear-gradient-17)"/>
    </g>
  </g>
</svg>
