<svg xmlns="http://www.w3.org/2000/svg" xmlns:xlink="http://www.w3.org/1999/xlink" width="113" height="135" viewBox="0 0 113 135">
  <defs>
    <linearGradient id="linear-gradient" x1="0.5" y1="-1.088" x2="0.5" y2="1" gradientUnits="objectBoundingBox">
      <stop offset="0" stop-color="#825ee3"/>
      <stop offset="1" stop-color="#3e348e"/>
    </linearGradient>
    <linearGradient id="linear-gradient-2" x1="0.5" y1="-0.825" x2="0.5" y2="0.755" gradientUnits="objectBoundingBox">
      <stop offset="0" stop-color="#c7d0ef"/>
      <stop offset="1" stop-color="#fcfcff"/>
    </linearGradient>
    <linearGradient id="linear-gradient-3" x1="0.5" y1="-0.097" x2="0.5" y2="0.848" gradientUnits="objectBoundingBox">
      <stop offset="0" stop-color="#fcfcff"/>
      <stop offset="1" stop-color="#c7d0ef"/>
    </linearGradient>
    <linearGradient id="linear-gradient-4" x1="0.501" y1="1.64" x2="0.501" y2="2.317" gradientUnits="objectBoundingBox">
      <stop offset="0" stop-color="#c7d0ef"/>
      <stop offset="1" stop-color="#f4f4f4"/>
    </linearGradient>
    <linearGradient id="linear-gradient-5" x1="0.5" y1="1.448" x2="0.5" gradientUnits="objectBoundingBox">
      <stop offset="0" stop-color="#7e90f0"/>
      <stop offset="1" stop-color="#3e348e"/>
    </linearGradient>
  </defs>
  <g id="Group_136" data-name="Group 136" transform="translate(-40 -285)">
    <path id="Rectangle_Dogs" data-name="Rectangle Dogs" d="M15,0H98a15,15,0,0,1,15,15V120a15,15,0,0,1-15,15H15A15,15,0,0,1,0,120V15A15,15,0,0,1,15,0Z" transform="translate(40 285)" fill="url(#linear-gradient)"/>
    <g id="Dog_svg" data-name="Dog svg" transform="translate(-86.2 149.576)">
      <path id="Path_75" data-name="Path 75" d="M182.5,477.754c22.266,0,40.3-4.748,40.3-10.577,0-5.86-18.029-10.577-40.3-10.577s-40.3,4.748-40.3,10.577S160.229,477.754,182.5,477.754Z" transform="translate(0 -217.711)" fill="#140e45"/>
      <path id="Path_76" data-name="Path 76" d="M200.168,358.3c.3,4.658,3.245,10.788,7.873,11.358,2.224.3,0,1.833-.871,2.194-1.563.631-4.237,1.743-4.808,3.546-.481,1.442.631,1.893,2.133,2.043,1.412.15,2.825-.571,4.117-1.022,2.224-.691,4.477-1.352,6.7-1.893a36.753,36.753,0,0,1,14.123-1.082c4.658.721,8.894,3.215,13.732,3.155a2.956,2.956,0,0,0,1.262-.24,1.233,1.233,0,0,0,.631-1.5c-.932-2.855-8.444-2.524-8.594-4.658-.06-.811,1.593-.571,2.194-.871,3.456-1.593,5.2-5.138,6.13-8.684,2.524-9.556-1.082-18.9-7.422-25.992-1.953-2.194-3.936-4.357-6.7-5.529a9.8,9.8,0,0,0-2.434-.691c-2.224-.3-4.417.391-6.611,1.082-3.786,1.2-7.542,2.374-11.328,3.606-2.133.691-3.846,1.262-5.108,3.4a42.1,42.1,0,0,0-5.018,16.767C200.107,354.965,200.077,356.648,200.168,358.3Z" transform="translate(-40.509 -128.005)" fill="url(#linear-gradient-2)"/>
      <path id="Path_77" data-name="Path 77" d="M236.587,266.873a.5.5,0,0,1,.24-.451c1.593-.811,5.529,13.4,5.92,14.754a100.076,100.076,0,0,1,4.237,26.143,74,74,0,0,1-.811,12.831,57.77,57.77,0,0,1-1.412,6.7c-.481,1.8-1.593,3.936-1.442,5.829.09,1.2,1.082,2.1,1.833,3.065.721.962,1.2,2.434.391,3.305a2.712,2.712,0,0,1-1.563.631c-2.1.391-6.13,1.112-6.521-1.352-.451-2.734-.451-2.734.331-5.259,1.893-5.829,1.8-15.355.811-21.365a3.543,3.543,0,0,0-.481-1.5c-1.022-1.412-3.1-.811-4.507-.541a11.644,11.644,0,0,1-6.01,0c-1.983-.541-4.748-1.442-6.551-.15-1.743,1.262-1.743,3.936-1.563,5.829a120.994,120.994,0,0,0,3.636,18.991c.451,1.713.571,4.027-1.082,4.718a3.207,3.207,0,0,1-1.412.15,25.256,25.256,0,0,1-3.726-.481c-1.022-.18-2.194-.781-2.194-1.8,0-.781.781-1.322,1.2-1.953,1.2-1.713.331-4.027-.481-5.92-4.9-11.328-8.053-24.73-5.649-37.05a71.364,71.364,0,0,1,1.953-7.332c1.713-5.649,3.365-11.268,5.048-16.918C223.7,267.834,235.956,273.814,236.587,266.873Z" transform="translate(-46.699 -84.656)" fill="url(#linear-gradient-3)"/>
      <path id="Path_78" data-name="Path 78" d="M271.4,312.6l.15,4.027a3.54,3.54,0,0,0,3.636,3.486h.09c1.953-.06,3.486-1.713,3.456-2.614l-.15-4.9Z" transform="translate(-90.377 -116.981)" fill="#ff8062"/>
      <path id="Path_79" data-name="Path 79" d="M281.223,312.6l-.811,4.117L279.3,312.6Z" transform="translate(-95.903 -116.981)" fill="#ae111f"/>
      <path id="Path_80" data-name="Path 80" d="M233.641,175.663c-2.734-1.442-5.349-3.215-8.414-3.846-3.1-.691-6.851.451-9.676,1.833-2.584-5.349-8.654-8.023-13.792-10.788-.451-.24-.932.3-.871.721.691,4.507,1.262,9.075,2.1,13.552a10.205,10.205,0,0,0,3.846,6.761c.09.06-.09,2.524,0,2.855,1.563,6.22,6.791,13.883,11.028,18.69,3.456,3.936,8.053,5.2,12.29,1.8,3.876-3.1,4.477-8.925,5.379-14.724.451-2.734,1.352-6.941,1.352-9.826C236.857,179.9,236.466,177.105,233.641,175.663Z" transform="translate(-41.049 -12.196)" fill="#fcfcff"/>
      <path id="Path_81" data-name="Path 81" d="M291.549,164.188c1.172,1.112,2.133,2.975,3.606,3.726,1.983,1.022,1.743-1.112,2.464-2.344,2.133-3.636,1.442-6.31.18-10.006-.15-.481-1.262-3.486-1.563-4.507-.691-2.614-.451-5.379-1.983-5.679-1.112-.24-3.456,4-3.936,4.718-1.172,1.743-2.975,3.7-2.584,5.769.571,2.855-2.464,4.267-1.713,5.2,1.082,1.2,2.614,1.5,4.027,2.133A9.3,9.3,0,0,1,291.549,164.188Z" transform="translate(-100.519)" fill="#140e45"/>
      <path id="Path_82" data-name="Path 82" d="M302.94,160.113c-.781-2.764-1.442-1.833-1.833-.15a15.062,15.062,0,0,1-2.855,5.769,6.226,6.226,0,0,0-1.352,3c0,1.352.18,1.082,1.412,1.713,1.412.721,2.194,1.983,3.546,2.764.331.18.481.451.962.391,1.5-.18,1.833-3.456,1.833-4.507A35.7,35.7,0,0,0,302.94,160.113Z" transform="translate(-108.214 -9.087)" fill="#ff8062"/>
      <path id="Path_83" data-name="Path 83" d="M218.928,181.941c-.571-1.563-2.344-2.674-3.546-3.606-1.983-1.5-4-2.975-5.98-4.417a.655.655,0,0,0-1.022.451c-.3,1.442.811,2.765,1.082,4.237.331,1.743.18,3.486.481,5.259a7.058,7.058,0,0,0,3.606,5.5.533.533,0,0,0,.811-.481l.09-.09c1.172-1.713,3.065-2.855,4.177-4.507A2.143,2.143,0,0,0,218.928,181.941Z" transform="translate(-46.259 -19.887)" fill="#ff8062"/>
      <path id="Path_84" data-name="Path 84" d="M240.043,234.64c-2.224-3.7-5.829-1.262-8.2.781-1.262,1.082-3.215,2.194-3.245,4.027-.06,1.833,1.112,3.606,2.043,5.138.571.962,1.022,2.374,2.043,3.065,1.563.962,3.1-.331,4.177-1.442C239.412,243.414,242.3,238.306,240.043,234.64Z" transform="translate(-60.433 -61.107)" fill="#140e45"/>
      <path id="Path_85" data-name="Path 85" d="M251.143,200.974a24.31,24.31,0,0,0-2.194-1.983c-1.022-1.262-1.713-2.825-3.365-3.4-.811-.3-1.713-.391-2.584-.691a2.549,2.549,0,0,1-2.043-2.374v-.3c-.331-.811-3.486-.691-4.177-.631a15.937,15.937,0,0,0-5.259,1.322,4.944,4.944,0,0,0-2.434,1.593,24.09,24.09,0,0,1-1.8,3.065,31.657,31.657,0,0,0-4.658,5.739.229.229,0,0,1-.331.09c-.18.451-.3.691-.3.691-.15,4.087,8.113-4.327,12.741-2.614,1.743.631,2.194,3.456,2.464,5.018a55,55,0,0,1,.631,8.925c0,2.1-.06,4.117-.15,6.22a16.617,16.617,0,0,1-.3,3.876c.15-.481,5.2-1.022,5.2-.932-.15-1.653-.871-3.245-1.112-4.9s-.391-3.365-.571-5.018a48.518,48.518,0,0,1,.18-11.809c.15-.931.331-2.434,1.322-2.825,1.593-.691,3.876.391,5.379.962a22.921,22.921,0,0,0,2.524.932c.18.06.721.3.932.15C251.563,201.755,251.473,201.394,251.143,200.974Z" transform="translate(-55.816 -32.309)" opacity="0.5" fill="url(#linear-gradient-4)"/>
      <path id="Path_86" data-name="Path 86" d="M296.685,242.448c-.691-.781-2.1-.932-2.524.15a1.415,1.415,0,0,0,1.352,1.893A1.269,1.269,0,0,0,296.685,242.448Z" transform="translate(-106.226 -67.473)" fill="#140e45"/>
      <path id="Path_87" data-name="Path 87" d="M247.885,250.349c-.691-.781-2.1-.932-2.524.15a1.415,1.415,0,0,0,1.352,1.893A1.272,1.272,0,0,0,247.885,250.349Z" transform="translate(-72.09 -72.999)" fill="#3e348e"/>
      <path id="Path_88" data-name="Path 88" d="M216.9,179.678A16.147,16.147,0,0,0,215,178.085c-1.983-1.593-4-3.245-6.07-4.718-.541-.391-1.322-.871-1.983-.331-1.172.932.811,1.322,1.262,1.5a11.32,11.32,0,0,1,2.194,1.5,7.41,7.41,0,0,1,2.614,4.327,43.318,43.318,0,0,1,0,4.417c.06.481.24,2.825,1.2,2.284.391-.24.451-.781.691-1.112a4.823,4.823,0,0,1,1.172-1.172,4.981,4.981,0,0,0,1.833-1.953C218.4,181.721,217.767,180.609,216.9,179.678Z" transform="translate(-45.038 -19.186)" fill="#ae111f"/>
      <path id="Path_89" data-name="Path 89" d="M274.7,294.5h-.6c-2.194.06-3.726.962-2.464,2.524,2.344,2.915,4.417,1.442,5.83,0C278.88,295.672,277.228,294.59,274.7,294.5Z" transform="translate(-90.225 -104.32)" fill="url(#linear-gradient-5)"/>
    </g>
  </g>
</svg>
