<svg xmlns="http://www.w3.org/2000/svg" xmlns:xlink="http://www.w3.org/1999/xlink" width="199" height="245" viewBox="0 0 199 245">
  <defs>
    <linearGradient id="linear-gradient" x1="0.5" x2="0.5" y2="1" gradientUnits="objectBoundingBox">
      <stop offset="0" stop-color="#825ee3"/>
      <stop offset="1" stop-color="#3e348e"/>
    </linearGradient>
    <linearGradient id="linear-gradient-2" x1="0.5" y1="1.411" x2="0.5" y2="0.432" gradientUnits="objectBoundingBox">
      <stop offset="0" stop-color="#c7d0ef"/>
      <stop offset="1" stop-color="#fcfcff"/>
    </linearGradient>
    <linearGradient id="linear-gradient-3" x1="0.5" y1="-0.196" x2="0.5" y2="0.848" gradientUnits="objectBoundingBox">
      <stop offset="0" stop-color="#fcfcff"/>
      <stop offset="1" stop-color="#c7d0ef"/>
    </linearGradient>
    <linearGradient id="linear-gradient-4" x1="0.501" y1="1.64" x2="0.501" y2="2.317" xlink:href="#linear-gradient-2"/>
    <linearGradient id="linear-gradient-5" x1="0.5" y1="1.731" x2="0.5" y2="-0.298" gradientUnits="objectBoundingBox">
      <stop offset="0" stop-color="#7e90f0"/>
      <stop offset="1" stop-color="#3e348e"/>
    </linearGradient>
  </defs>
  <g id="Dogs" transform="translate(-561 -259)">
    <path id="Rectangle_Dogs" data-name="Rectangle Dogs" d="M25,0H174a25,25,0,0,1,25,25V220a25,25,0,0,1-25,25H25A25,25,0,0,1,0,220V25A25,25,0,0,1,25,0Z" transform="translate(561 259)" fill="url(#linear-gradient)"/>
    <text id="dogs-2" data-name="dogs" transform="translate(561 267)" fill="#1f1a47" font-size="18" font-family="OpenSans-Regular, Open Sans"><tspan x="79.325" y="19">dogs</tspan></text>
    <g id="Dog_svg" data-name="Dog svg" transform="translate(594.5 295.015)">
      <path id="Path_75" data-name="Path 75" d="M208.336,491.32c36.545,0,66.136-7.792,66.136-17.36,0-9.617-29.591-17.36-66.136-17.36S142.2,464.392,142.2,473.96,171.791,491.32,208.336,491.32Z" transform="translate(-142.2 -303.106)" fill="#1f1a47"/>
      <path id="Path_76" data-name="Path 76" d="M200.2,377.5c.493,7.644,5.326,17.705,12.921,18.642,3.65.493,0,3.008-1.43,3.6-2.565,1.036-6.954,2.86-7.891,5.82-.789,2.367,1.036,3.107,3.5,3.354,2.318.247,4.636-.937,6.757-1.677,3.65-1.134,7.348-2.219,11-3.107,7.595-1.825,15.387-2.959,23.18-1.775,7.644,1.184,14.6,5.277,22.538,5.178a4.851,4.851,0,0,0,2.071-.395,2.023,2.023,0,0,0,1.036-2.466c-1.529-4.685-13.858-4.143-14.1-7.644-.1-1.332,2.614-.937,3.6-1.43,5.672-2.614,8.532-8.433,10.061-14.253,4.143-15.683-1.775-31.021-12.182-42.66-3.206-3.6-6.461-7.151-11-9.075a16.075,16.075,0,0,0-3.995-1.134c-3.65-.493-7.25.641-10.85,1.775-6.214,1.973-12.379,3.9-18.593,5.918-3.5,1.134-6.313,2.071-8.384,5.573-4.685,8.138-7.4,18.2-8.236,27.52C200.105,372.026,200.056,374.788,200.2,377.5Z" transform="translate(-171.55 -238.111)" fill="url(#linear-gradient-2)"/>
      <path id="Path_77" data-name="Path 77" d="M254.3,267.183a.818.818,0,0,1,.395-.74c2.614-1.332,9.074,22,9.716,24.215a164.25,164.25,0,0,1,6.954,42.907,121.45,121.45,0,0,1-1.332,21.059,94.816,94.816,0,0,1-2.318,11c-.789,2.959-2.614,6.461-2.367,9.568.148,1.973,1.775,3.452,3.008,5.03,1.184,1.578,1.973,3.995.641,5.425a4.452,4.452,0,0,1-2.565,1.036c-3.452.641-10.061,1.825-10.7-2.219-.74-4.488-.74-4.488.542-8.631,3.107-9.568,2.959-25.2,1.332-35.065a5.816,5.816,0,0,0-.789-2.466c-1.677-2.318-5.08-1.332-7.4-.888a19.111,19.111,0,0,1-9.864,0c-3.255-.888-7.792-2.367-10.751-.247-2.86,2.071-2.86,6.461-2.565,9.568,1.184,11.738,3.107,19.678,5.967,31.169.74,2.811.937,6.609-1.775,7.743a5.264,5.264,0,0,1-2.318.247A41.457,41.457,0,0,1,222,385.1c-1.677-.3-3.6-1.282-3.6-2.959,0-1.282,1.282-2.17,1.973-3.206,1.973-2.811.543-6.609-.789-9.716-8.039-18.593-13.217-40.589-9.272-60.809a117.124,117.124,0,0,1,3.206-12.034c2.811-9.272,5.524-18.494,8.285-27.766C233.146,268.762,253.267,278.576,254.3,267.183Z" transform="translate(-176.035 -206.703)" fill="url(#linear-gradient-3)"/>
      <path id="Path_78" data-name="Path 78" d="M271.4,312.6l.247,6.609a5.81,5.81,0,0,0,5.967,5.721h.148c3.206-.1,5.721-2.811,5.672-4.291l-.247-8.039Z" transform="translate(-207.681 -230.124)" fill="#ff8062"/>
      <path id="Path_79" data-name="Path 79" d="M282.456,312.6l-1.332,6.757L279.3,312.6Z" transform="translate(-211.685 -230.124)" fill="#ae111f"/>
      <path id="Path_80" data-name="Path 80" d="M254.648,183.91c-4.488-2.367-8.779-5.277-13.809-6.313-5.08-1.134-11.245.74-15.88,3.008-4.241-8.779-14.2-13.168-22.637-17.705-.74-.395-1.529.493-1.43,1.184,1.134,7.4,2.071,14.894,3.452,22.242.888,4.685,2.614,8.285,6.313,11.1.148.1-.148,4.143,0,4.685,2.565,10.209,11.146,22.785,18.1,30.676,5.672,6.461,13.217,8.532,20.171,2.959,6.362-5.08,7.348-14.647,8.828-24.166.74-4.488,2.219-11.393,2.219-16.127C259.925,190.863,259.284,186.277,254.648,183.91Z" transform="translate(-171.942 -154.204)" fill="#fcfcff"/>
      <path id="Path_81" data-name="Path 81" d="M295.172,176.257c1.923,1.825,3.5,4.882,5.918,6.115,3.255,1.677,2.86-1.825,4.044-3.847,3.5-5.967,2.367-10.357.3-16.423-.247-.789-2.071-5.721-2.565-7.4-1.134-4.291-.74-8.828-3.255-9.321-1.825-.395-5.672,6.559-6.461,7.743-1.923,2.86-4.882,6.066-4.241,9.469.937,4.685-4.044,7-2.811,8.532,1.775,1.973,4.291,2.466,6.609,3.5A15.257,15.257,0,0,1,295.172,176.257Z" transform="translate(-215.03 -145.367)" fill="#140e45"/>
      <path id="Path_82" data-name="Path 82" d="M306.813,161.239c-1.282-4.537-2.367-3.008-3.008-.247a24.721,24.721,0,0,1-4.685,9.469c-.888,1.282-2.219,3.255-2.219,4.932,0,2.219.3,1.775,2.318,2.811,2.318,1.184,3.6,3.255,5.82,4.537.542.3.789.74,1.578.641,2.466-.3,3.008-5.672,3.008-7.4C309.624,171.2,308.1,165.875,306.813,161.239Z" transform="translate(-220.605 -151.951)" fill="#ff8062"/>
      <path id="Path_83" data-name="Path 83" d="M225.725,187.164c-.937-2.565-3.847-4.389-5.82-5.918-3.255-2.466-6.559-4.883-9.814-7.25a1.075,1.075,0,0,0-1.677.74c-.493,2.367,1.332,4.537,1.775,6.954.543,2.86.3,5.721.789,8.631.641,3.9,2.318,7.1,5.918,9.025a.875.875,0,0,0,1.332-.789l.148-.148c1.923-2.811,5.03-4.685,6.855-7.4A3.517,3.517,0,0,0,225.725,187.164Z" transform="translate(-175.716 -159.776)" fill="#ff8062"/>
      <path id="Path_84" data-name="Path 84" d="M247.386,235.869c-3.65-6.066-9.568-2.071-13.464,1.282-2.071,1.775-5.277,3.6-5.326,6.609-.1,3.008,1.825,5.918,3.354,8.433.937,1.578,1.677,3.9,3.354,5.03,2.565,1.578,5.08-.542,6.855-2.367C246.351,250.27,251.085,241.885,247.386,235.869Z" transform="translate(-185.985 -189.641)" fill="#1f1a47"/>
      <path id="Path_85" data-name="Path 85" d="M269.835,207.014a39.9,39.9,0,0,0-3.6-3.255c-1.677-2.071-2.811-4.636-5.524-5.573-1.332-.493-2.811-.641-4.241-1.134-1.775-.543-3.452-1.923-3.354-3.9v-.493c-.543-1.332-5.721-1.134-6.855-1.036a26.156,26.156,0,0,0-8.631,2.17c-1.529.641-3.008,1.184-3.995,2.614-1.134,1.677-1.578,3.5-2.959,5.03-2.811,3.008-5.573,5.82-7.644,9.42a.376.376,0,0,1-.542.148c-.3.74-.493,1.134-.493,1.134-.247,6.707,13.316-7.1,20.911-4.291,2.86,1.036,3.6,5.672,4.044,8.236a90.268,90.268,0,0,1,1.036,14.647c0,3.452-.1,6.757-.247,10.209-.1,1.973.1,4.488-.493,6.362.247-.789,8.532-1.677,8.532-1.529-.247-2.713-1.43-5.326-1.825-8.039s-.641-5.524-.937-8.236a79.629,79.629,0,0,1,.3-19.382c.247-1.529.542-3.995,2.17-4.636,2.614-1.134,6.362.641,8.828,1.578a37.621,37.621,0,0,0,4.143,1.529c.3.1,1.184.493,1.529.247C270.526,208.3,270.378,207.7,269.835,207.014Z" transform="translate(-182.641 -168.776)" opacity="0.5" fill="url(#linear-gradient-4)"/>
      <path id="Path_86" data-name="Path 86" d="M298.369,242.848c-1.134-1.282-3.452-1.529-4.143.247a2.322,2.322,0,0,0,2.219,3.107A2.083,2.083,0,0,0,298.369,242.848Z" transform="translate(-219.164 -194.254)" fill="#140e45"/>
      <path id="Path_87" data-name="Path 87" d="M249.569,250.748c-1.134-1.282-3.452-1.529-4.143.247a2.322,2.322,0,0,0,2.219,3.107A2.088,2.088,0,0,0,249.569,250.748Z" transform="translate(-194.432 -198.258)" fill="#3e348e"/>
      <path id="Path_88" data-name="Path 88" d="M223.508,184.091a26.5,26.5,0,0,0-3.107-2.614c-3.255-2.614-6.559-5.326-9.962-7.743-.888-.641-2.17-1.43-3.255-.542-1.923,1.529,1.332,2.17,2.071,2.466a18.58,18.58,0,0,1,3.6,2.466,12.162,12.162,0,0,1,4.291,7.1c.395,2.367-.148,4.882,0,7.25.1.789.395,4.636,1.973,3.748.641-.395.74-1.282,1.134-1.825a7.915,7.915,0,0,1,1.923-1.923c1.134-.888,2.466-1.775,3.008-3.206C225.974,187.445,224.938,185.62,223.508,184.091Z" transform="translate(-174.831 -159.268)" fill="#ae111f"/>
      <path id="Path_89" data-name="Path 89" d="M276.962,294.5h-.986c-3.6.1-6.115,1.578-4.044,4.143,3.847,4.784,7.25,2.367,9.568,0C283.817,296.423,281.1,294.648,276.962,294.5Z" transform="translate(-207.571 -220.951)" fill="url(#linear-gradient-5)"/>
    </g>
  </g>
</svg>
