<svg xmlns="http://www.w3.org/2000/svg" xmlns:xlink="http://www.w3.org/1999/xlink" width="2034.798" height="1948.999" viewBox="0 0 2034.798 1948.999">
  <defs>
    <linearGradient id="linear-gradient" x1="0.791" y1="0.941" x2="0.256" y2="-0.057" gradientUnits="objectBoundingBox">
      <stop offset="0" stop-color="#5e73e4"/>
      <stop offset="1" stop-color="#825ee3"/>
    </linearGradient>
  </defs>
  <path id="Back" d="M349.771,197.534c149.323-81.963,110.045-66.493,124.88-70.089,3.126-.758,87.7-54.636,100.814-58.205-30.386,17.007,32.62-18.833,32.62-18.833s17.78-10.9,39.626-22.878c9.2-5.048,21.026-16.437,29.626-17.1C715.692,7.45,759.173,4.057,808.87-.649c326.114-30.881,551.869,226.375,596.49,295.782,131.064,198.721,152.462,488.529,24.072,640.794-94.525,82.283-62.642,147.244-248.209,277.622-98.707,67.814-159.7,131.792-402.361,123.477-442.053-42.927-332.34-323.274-636.044-438.615C-37.883,829.784-78.222,627.559-53.22,430.2c1.9-14.974-6.324,45.994.871,1.508C-39.059,424.972.018,399.463.018,399.463s8.2-1.819,234.241-133.228C261.039,249.692,337.38,207,349.771,197.534Z" transform="matrix(-0.866, -0.5, 0.5, -0.866, 1314.009, 1916.249)" fill="url(#linear-gradient)"/>
</svg>
