<svg xmlns="http://www.w3.org/2000/svg" xmlns:xlink="http://www.w3.org/1999/xlink" width="604" height="767" viewBox="0 0 604 767">
  <defs>
    <clipPath id="clip-path">
      <rect id="Rectangle_86" data-name="Rectangle 86" width="604" height="767" transform="translate(0 0.094)"/>
    </clipPath>
    <linearGradient id="linear-gradient" x1="0.11" y1="-6.72" x2="0.89" y2="-8.06" gradientUnits="objectBoundingBox">
      <stop offset="0" stop-color="#a86d46"/>
      <stop offset="0.014" stop-color="#a86d46"/>
      <stop offset="0.215" stop-color="#af7753"/>
      <stop offset="0.607" stop-color="#c49478"/>
      <stop offset="0.743" stop-color="#cc9f88"/>
      <stop offset="1" stop-color="#cc9f88"/>
    </linearGradient>
    <linearGradient id="linear-gradient-2" x1="1.198" y1="-2.223" x2="0.058" y2="-1.494" gradientUnits="objectBoundingBox">
      <stop offset="0" stop-color="#a86d46"/>
      <stop offset="0.014" stop-color="#a86d46"/>
      <stop offset="0.183" stop-color="#af7753"/>
      <stop offset="0.51" stop-color="#c49478"/>
      <stop offset="0.624" stop-color="#cc9f88"/>
      <stop offset="1" stop-color="#cc9f88"/>
    </linearGradient>
    <linearGradient id="linear-gradient-3" x1="0.112" y1="-9.105" x2="0.887" y2="-10.679" gradientUnits="objectBoundingBox">
      <stop offset="0" stop-color="#cc9f88"/>
      <stop offset="0.188" stop-color="#cc9f88"/>
      <stop offset="0.254" stop-color="#c49478"/>
      <stop offset="0.445" stop-color="#af7753"/>
      <stop offset="0.543" stop-color="#a86d46"/>
      <stop offset="1" stop-color="#a86d46"/>
    </linearGradient>
    <linearGradient id="linear-gradient-4" x1="0.286" y1="-3.336" x2="0.911" y2="-2.481" xlink:href="#linear-gradient-2"/>
    <linearGradient id="linear-gradient-5" x1="-0.284" y1="-2.2" x2="0.734" y2="-1.3" gradientUnits="objectBoundingBox">
      <stop offset="0" stop-color="#a86d46"/>
      <stop offset="0.014" stop-color="#a86d46"/>
      <stop offset="0.131" stop-color="#af7753"/>
      <stop offset="0.358" stop-color="#c49478"/>
      <stop offset="0.438" stop-color="#cc9f88"/>
      <stop offset="1" stop-color="#cc9f88"/>
    </linearGradient>
    <linearGradient id="linear-gradient-6" x1="0.162" y1="0.214" x2="1" y2="1" gradientUnits="objectBoundingBox">
      <stop offset="0" stop-color="#5e73e4"/>
      <stop offset="1" stop-color="#1f1a47"/>
    </linearGradient>
    <linearGradient id="linear-gradient-7" x1="0.968" y1="-2.682" x2="-0.256" y2="-3.673" xlink:href="#linear-gradient-2"/>
    <linearGradient id="linear-gradient-8" x1="-0.557" y1="1.213" x2="0.752" y2="0.41" gradientUnits="objectBoundingBox">
      <stop offset="0" stop-color="#ea624b"/>
      <stop offset="0.128" stop-color="#ec715b"/>
      <stop offset="1" stop-color="#f5b4aa"/>
    </linearGradient>
    <linearGradient id="linear-gradient-9" y1="1.415" x2="0.678" y2="-0.017" gradientUnits="objectBoundingBox">
      <stop offset="0" stop-color="#5e73e4"/>
      <stop offset="0.337" stop-color="#5e73e4"/>
      <stop offset="1" stop-color="#1f1a47"/>
    </linearGradient>
    <linearGradient id="linear-gradient-10" x1="0.921" y1="1" x2="0.21" y2="-0.06" gradientUnits="objectBoundingBox">
      <stop offset="0" stop-color="#5e73e4"/>
      <stop offset="0.448" stop-color="#636ee1"/>
      <stop offset="1" stop-color="#3e348e"/>
    </linearGradient>
    <radialGradient id="radial-gradient" cx="1.245" cy="0.917" r="1.282" gradientTransform="matrix(1.138, 0.456, 0.583, -0.89, -1.691, 10.152)" gradientUnits="objectBoundingBox">
      <stop offset="0" stop-color="#3bcd8f"/>
      <stop offset="0.277" stop-color="#3bcd8f"/>
      <stop offset="0.495" stop-color="#26ae74"/>
      <stop offset="0.82" stop-color="#0b8450"/>
      <stop offset="0.987" stop-color="#007442"/>
      <stop offset="1" stop-color="#007442"/>
    </radialGradient>
    <linearGradient id="linear-gradient-11" x1="0.867" x2="-1.294" y2="2.728" gradientUnits="objectBoundingBox">
      <stop offset="0" stop-color="#ff6145"/>
      <stop offset="0.014" stop-color="#ff6145"/>
      <stop offset="0.182" stop-color="#ffb0a3"/>
      <stop offset="1" stop-color="#ffb6a9"/>
    </linearGradient>
    <radialGradient id="radial-gradient-2" cx="0.979" cy="0.561" r="0.728" gradientTransform="matrix(1.151, 0.456, 0.589, -0.89, -3.614, 21.094)" gradientUnits="objectBoundingBox">
      <stop offset="0" stop-color="#ffbeb2"/>
      <stop offset="0.872" stop-color="#ffb0a2"/>
      <stop offset="1" stop-color="#FFBEB2"/>
    </radialGradient>
    <linearGradient id="linear-gradient-12" x1="1.831" y1="0.413" x2="-0.168" y2="0.5" gradientUnits="objectBoundingBox">
      <stop offset="0" stop-color="#2c4655"/>
      <stop offset="0.532" stop-color="#2c4655"/>
      <stop offset="1" stop-color="#1f1a47"/>
    </linearGradient>
    <linearGradient id="linear-gradient-13" x1="0.176" y1="1.577" x2="0.945" y2="0.534" gradientUnits="objectBoundingBox">
      <stop offset="0" stop-color="#ff6145"/>
      <stop offset="0.014" stop-color="#ff6145"/>
      <stop offset="0.119" stop-color="#ff735a"/>
      <stop offset="0.27" stop-color="#ff9380"/>
      <stop offset="0.96" stop-color="#ffb6a9"/>
      <stop offset="1" stop-color="#ffb6a9"/>
    </linearGradient>
  </defs>
  <g id="man_dog" data-name="man+dog" transform="translate(-1.591 -29.629)">
    <g id="Group_96" data-name="Group 96" transform="translate(1.591 29.535)" clip-path="url(#clip-path)">
      <path id="Path_158" data-name="Path 158" d="M354.116,331.6c0,14.889,27.762,24.815,22.179,32.881l-12.718,1.706L336.9,348.816Z" transform="translate(186.094 183.238)" fill="#cc9f88"/>
      <path id="Path_159" data-name="Path 159" d="M353.656,329.3c-1.086,13.648,18.146,29,21.559,31.64a1.065,1.065,0,0,1,.465,1.4c-1.861,3.257-22.024-7.91-40.48-17.526Z" transform="translate(185.157 181.971)" fill="#ae111d"/>
      <path id="Path_160" data-name="Path 160" d="M435.777,408.017l-.31-.155a22.326,22.326,0,0,0-21.4.31l-4.033,2.171-4.5-.465A141.642,141.642,0,0,1,360.4,397.005c-30.864-14.579-53.043-24.505-53.043-24.505L296.5,395.144c17.526,17.371,104.535,29.468,104.535,29.468,16.75,9.151,29.623,1.551,35.672-3.257a8.233,8.233,0,0,0-.465-13.028A2.228,2.228,0,0,0,435.777,408.017Z" transform="translate(163.835 205.773)" fill="url(#linear-gradient)"/>
      <path id="Path_161" data-name="Path 161" d="M228.034,423.288l9.616-21.248S197.48,379.24,207.1,298.9C207.1,298.745,166.305,354.115,228.034,423.288Z" transform="translate(107.293 165.222)" fill="url(#linear-gradient-2)"/>
      <path id="Path_162" data-name="Path 162" d="M218.765,416.879l-3.877-7.91c-6.049-12.253-19.077-20.007-32.88-18.612a89.736,89.736,0,0,1-14.114.465,20.879,20.879,0,0,0-19.542,12.408c-2.637,6.049.465,7.445,3.877,7.445a11.018,11.018,0,0,0,5.739-1.241c19.7-9.926,45.288,9.616,45.288,9.616,48.08,31.95,86.854,13.028,85.924,11.632a55.7,55.7,0,0,0-13.959-14.269C249.319,398.578,218.765,416.879,218.765,416.879Z" transform="translate(81.665 215.523)" fill="url(#linear-gradient-3)"/>
      <path id="Path_163" data-name="Path 163" d="M315.5,324.78l2.171-7.445A18.969,18.969,0,0,0,315.5,324.78Zm2.326-7.755a1.193,1.193,0,0,1,.31-.465c.155-.31.155-.62.31-.931ZM383.9,293.916c-4.188-2.016-9-3.1-13.183-2.326-7.29,1.4-12.408,7.445-19.542,9.771-5.739,2.016-12.408,1.241-18.3,2.792a23.993,23.993,0,0,0-15.044,12.408c-1.241,7.755,4.033,15.355,10.857,19.542,6.979,4.343,15.51,5.739,23.42,6.979,4.808.62,9.926,1.241,13.338-1.706,2.637-2.326,3.722-6.049,5.273-9a25.3,25.3,0,0,1,11.012-10.7c2.792-1.4,6.2-2.016,8.53-4.343,3.567-3.1,4.343-8.53,2.792-12.873a18.179,18.179,0,0,0-7.134-8.53C385.759,294.846,384.828,294.691,383.9,293.916Z" transform="translate(174.303 161.055)" fill="url(#linear-gradient-4)"/>
      <path id="Path_164" data-name="Path 164" d="M501.454,319.562a3.509,3.509,0,0,0-1.4-.62,11.16,11.16,0,0,0-7.445-.931l-3.877.775c-11.477,2.171-23.42-1.086-33.036-7.6-12.1-7.91-29.313-5.428-35.362-2.482-15.51,7.6-10.857,31.33-23.73,53.663a61.384,61.384,0,0,1-9.151,11.943A71.651,71.651,0,0,1,366.675,389.2a9.151,9.151,0,0,0-1.241.62c-14.579,7.29-38.154,8.685-55.525,5.428a38.4,38.4,0,0,1-6.049-1.551c-29-8.22-62.194,19.077-97.4,69.328,1.086-20.783-13.338-18.612-40.946,3.412l-11.632,10.7s-23.575,5.118-20.163,23.109c0,0,1.086,12.563,13.183,10.081a17.831,17.831,0,0,0,13.959-15.044l.465-3.412s22.489-32.57,31.33-17.371c0,0-10.081,15.355,19.7,11.477,0,0,24.2-.62,49.786-18.146l2.482.155s6.2-.931,16.906,7.445c15.2,12.1,33.656,19.232,52.733,19.542a75.7,75.7,0,0,0,23.575-2.947c1.086-.465,2.327-.62,3.257-1.086,0,0,51.8-8.685,66.692-63.435.155-.31.155-.62.31-.931a136.531,136.531,0,0,1,6.514-20.473c.31-.931.775-1.706,1.086-2.637,1.4-3.1,2.637-6.669,4.5-10.391.62-1.4,1.4-3.1,2.171-4.808a16.679,16.679,0,0,1,25.126-6.359,1.193,1.193,0,0,1,.465.31,15.111,15.111,0,0,0,10.857,3.257c3.722-.465,8.22-5.118,10.392-7.755a1.562,1.562,0,0,0-.931-2.482c-13.338-4.963-23.73-10.857-26.677-18.612a1.721,1.721,0,0,1,1.241-2.482L490.6,347.79c15.2-3.877,17.216-19.387,16.75-20.938a11.729,11.729,0,0,0-4.808-6.669C501.609,319.717,501.609,319.717,501.454,319.562Z" transform="translate(73.963 169.065)" fill="url(#linear-gradient-5)"/>
      <path id="Path_165" data-name="Path 165" d="M297.2,354.042c12.408,13.959,28.383,24.815,46.994,33.036.31-.931.775-1.706,1.086-2.637,1.4-3.1,2.637-6.669,4.5-10.391-16.44-6.979-30.709-17.526-43.272-31.95A73.137,73.137,0,0,1,297.2,354.042Z" transform="translate(164.221 189.024)" fill="url(#linear-gradient-6)"/>
      <path id="Path_166" data-name="Path 166" d="M298.648,394.087a21.42,21.42,0,0,1-14.114-2.171c-4.963-2.637-9.461-7.445-14.734-6.2-4.188.776-6.979,5.273-10.857,6.669-4.343,1.551-9.306-1.086-12.1-4.5-2.326-2.637-4.5-6.049-3.567-9.461a13.638,13.638,0,0,1,2.482-4.653,45.257,45.257,0,0,0,3.877-7.755l.31-.465c17.371,3.257,40.79,1.706,55.525-5.428a9.151,9.151,0,0,0,1.241-.62,1.191,1.191,0,0,1,.465.31,16.873,16.873,0,0,1,3.257,4.033c1.861,4.963-2.792,9.616-3.1,14.579-.465,3.412,1.086,7.134-.155,9.926A12.257,12.257,0,0,1,298.648,394.087Z" transform="translate(134.39 198.61)" fill="#b3805d"/>
      <path id="Path_167" data-name="Path 167" d="M294.866,440.964c-1.086.465-2.326.62-3.257,1.086A81.927,81.927,0,0,1,268.034,445c.155-.31-.155-.465.155-.62-4.963-.775-9.771-1.4-14.889-2.016,22.8-12.718,52.423-12.718,72.12-29.779A80.643,80.643,0,0,0,336.9,400.019c5.273-6.824,15.51,1.241,10.391,8.22C326.2,435.846,294.866,440.964,294.866,440.964Z" transform="translate(140.033 219.51)" fill="#b3805d"/>
      <path id="Path_168" data-name="Path 168" d="M375.561,312.9c-1.086,0-4.653.931-5.583,1.086-4.963,1.4-8.53,5.428-7.29,9.151.931,3.567,5.739,5.739,10.7,4.343,4.653-1.4,8.22-3.412,8.53-8.22.155-2.947-.775-4.343-2.016-5.118A9.7,9.7,0,0,0,375.561,312.9Z" transform="translate(200.166 172.935)" fill="#1f1a47"/>
      <path id="Path_169" data-name="Path 169" d="M295.018,390.271c4.808,8.065,11.942,20.783,20.163,35.207a171.914,171.914,0,0,0,35.052,43.427l4.033.62a22.848,22.848,0,0,1,17.991,12.253c1.861,3.877,2.482,7.91-1.706,10.7-1.241.31-24.815,6.514-36.138-17.216,0,0-46.684-43.892-62.969-71.81A13.382,13.382,0,0,1,276.561,385C283.23,381.9,291.45,384.067,295.018,390.271Z" transform="translate(149.032 211.887)" fill="#cc9f88"/>
      <path id="Path_170" data-name="Path 170" d="M339.515,319.309c-.31,2.792,1.086,4.808,3.257,5.118,2.016.31,3.877-1.861,4.188-4.5.31-2.792-1.086-4.808-3.257-5.118C341.687,314.5,339.825,316.517,339.515,319.309Z" transform="translate(187.511 173.971)" fill="#1f1a47"/>
      <path id="Path_171" data-name="Path 171" d="M348.052,306l-4.033-1.241a20.373,20.373,0,0,0-24.2,2.947c-4.808,4.963-7.134,11.477-11.942,16.44-4.5,4.343-10.7,6.514-16.13,9.461-6.514,3.722-12.408,9-14.269,16.285s1.4,16.13,8.375,18.3c4.808,1.706,9.926.155,14.579-2.326,4.5-2.171,8.685-5.273,13.493-6.824,3.722-1.241,7.445-1.241,11.477-2.171,15.665-3.877,24.971-20.473,26.987-36.6.62-5.118.31-11.322-4.033-14.269C348.208,306.307,348.208,306.307,348.052,306Z" transform="translate(153.073 166.965)" fill="url(#linear-gradient-7)"/>
      <path id="Path_172" data-name="Path 172" d="M363.831,353.308c-1.706,1.861-4.343,2.637-6.669,3.257-3.567.931-6.979,1.551-9.771,3.412-3.567,2.016-6.824,6.2-10.857,5.583-3.877-.31-6.359-4.808-5.583-8.685.62-3.722,3.722-6.669,7.29-8.53,3.412-1.706,7.445-2.326,10.857-2.947a7.828,7.828,0,0,0,3.567-1.4,2.473,2.473,0,0,0,.155-3.567l3.412-.62a10.977,10.977,0,0,1,4.808.62,7.409,7.409,0,0,1,3.257,2.947c.31.155.31.62.62.775A8.065,8.065,0,0,1,363.831,353.308Z" transform="translate(182.738 187.742)" fill="#d83542"/>
      <path id="Path_173" data-name="Path 173" d="M347.083,349.616h0c3.1-.155,9.771-1.241,8.22-6.669A29.386,29.386,0,0,0,352.046,340C352.046,340.465,357.009,347.445,347.083,349.616Z" transform="translate(191.576 187.867)" fill="#ae111d"/>
      <path id="Path_174" data-name="Path 174" d="M192.733,116.3l-3.412-18.457s7.755-48.545-17.371-55.525-4.963,48.855-4.963,48.855L169,101.561l5.739,17.371c3.412,23.42,5.273,27.142,15.044,80.03C118.907,155.07,98.9,145.454,98.9,145.454l63.745,87.009s17.371,13.338,45.443,20.007a13.894,13.894,0,0,0,17.061-13.338C225.149,199.272,201.419,144.058,192.733,116.3Z" transform="translate(54.964 23.519)" fill="url(#linear-gradient-8)"/>
      <path id="Path_175" data-name="Path 175" d="M188.868,163.489,109.3,99.124c-3.1-2.637-7.445-.62-8.065,3.257L95.5,147.359l71.81,57.851C174.134,196.525,189.023,172.8,188.868,163.489Z" transform="translate(53.091 54.494)" fill="#10bf98"/>
      <path id="Path_176" data-name="Path 176" d="M125.391,109.76l32.105-1.4c4.343,0,7.29-3.722,7.29-8.065L162.46,36.09c0-4.343-3.722-7.29-8.065-7.29l-32.1,1.706c-4.343,0-7.29,3.722-7.29,8.065l2.326,64.21A7.819,7.819,0,0,0,125.391,109.76Z" transform="translate(63.835 16.406)" fill="#fff"/>
      <path id="Path_177" data-name="Path 177" d="M124.389,97.781l30.4-.931a4.643,4.643,0,0,0,4.653-4.963l-2.016-55.525a4.643,4.643,0,0,0-4.963-4.653l-30.4.465a4.643,4.643,0,0,0-4.653,4.963l2.016,55.835A4.865,4.865,0,0,0,124.389,97.781Z" transform="translate(65.147 17.994)" fill="#dfe6fe"/>
      <path id="Path_178" data-name="Path 178" d="M133.047,81.594a2.947,2.947,0,1,0-2.947-2.947A3.051,3.051,0,0,0,133.047,81.594Z" transform="translate(72.154 42.246)" fill="#1f1a47"/>
      <path id="Path_179" data-name="Path 179" d="M156.937,151.637,154.3,149Z" transform="translate(85.488 82.632)" fill="#322b6f"/>
      <path id="Path_180" data-name="Path 180" d="M203.9,209.091S79.207,260.739,51.91,234.372l-.31-13.959L189.636,198.7Z" transform="translate(28.903 110.015)" fill="#001c43"/>
      <path id="Path_181" data-name="Path 181" d="M90.191,509.41c-.62,0-.931-.31-1.551-.31-10.236-3.257-17.681-11.167-19.232-20.938a15.57,15.57,0,0,0-7.445-10.547l-1.241-.62c-10.236-5.894-11.942-19.387-2.947-27.142,0,0,.31-.62.931-2.016a25.108,25.108,0,0,0,.931-2.637l20.628,13.183c-.31.62-.31,1.706-.62,2.326l17.681,42.652C98.877,506.773,94.689,510.651,90.191,509.41Z" transform="translate(29.086 245.828)" fill="#1f1a47"/>
      <path id="Path_182" data-name="Path 182" d="M218.057,455.3,167.5,457.631c-.62-.31-1.551-.931-2.326-1.241L143.3,459.337l2.326,5.894c.31.931.62,2.016.931,2.947a19.387,19.387,0,0,0,15.51,14.114,21.144,21.144,0,0,0,16.13-3.877l1.241-.931a18.115,18.115,0,0,1,13.493-3.257,32.263,32.263,0,0,0,25.436-7.134C228.293,460.888,222.554,454.994,218.057,455.3Z" transform="translate(79.427 251.389)" fill="#1f1a47"/>
      <path id="Path_183" data-name="Path 183" d="M79.777,593.429c-8.375-3.567-17.061-7.134-25.746-10.547a3.841,3.841,0,0,1-.931-.62s80.805-284.447,74.291-374.248L182.14,201.5c2.637,2.637,7.91,3.412,7.91,3.412S193.928,379.4,82.723,593.74A10.05,10.05,0,0,1,79.777,593.429Z" transform="translate(29.73 111.558)" fill="url(#linear-gradient-9)"/>
      <path id="Path_184" data-name="Path 184" d="M132.267,202.6l84.217,392.86-24.2,6.824S77.518,306.049,57.2,225.089C64.645,215.628,132.267,202.6,132.267,202.6Z" transform="translate(31.989 112.164)" fill="url(#linear-gradient-10)"/>
      <path id="Path_185" data-name="Path 185" d="M93.321,92.385c-8.065-2.947-16.285-2.947-23.264,0a31.339,31.339,0,0,0-10.081,5.739,32,32,0,0,0-11.787,28.383c1.086,13.649-1.241,58.471-1.086,99.107,0,2.947.155,6.049.155,9.461.62,26.211,1.551,49.166,7.134,59.092l13.8-5.273a244.073,244.073,0,0,1,63.745-18.612,209.439,209.439,0,0,1,24.971-2.482,231.017,231.017,0,0,1,32.725.155L206.7,269.2c-13.649-12.1-53.508-49.321-50.717-71.965,0,0-.775-29.468,3.567-53.353,3.567-19.387-17.991-38.154-17.991-38.154Z" transform="translate(26.421 50.221)" fill="url(#radial-gradient)"/>
      <path id="Path_186" data-name="Path 186" d="M75.3,91l42.962,11.322s2.637,29-4.808,41.721C113.454,144.043,79.643,119.072,75.3,91Z" transform="translate(41.961 50.676)" fill="#10bf98"/>
      <path id="Path_187" data-name="Path 187" d="M48.261,231.918a71.784,71.784,0,0,0-1.241-7.29c-.465-40.635,2.171-85.148,1.086-99.107A32.382,32.382,0,0,1,59.893,97.139,30.955,30.955,0,0,1,69.974,91.4,54.123,54.123,0,0,1,76.023,99c8.84,14.269,3.722,31.174-9.151,41.566C51.362,152.973,51.828,195.78,48.261,231.918Z" transform="translate(26.349 50.896)" fill="#1f1a47"/>
      <path id="Path_188" data-name="Path 188" d="M79.6,106.131a31.133,31.133,0,0,0-.775,6.514c-1.861,12.408,31.485,43.117,32.725,42.652,1.551-.62,1.086-17.991.775-20.007-.62-13.028.155-35.672,10.391-53.2L91.545,56.5S83.635,81.781,79.6,106.131Z" transform="translate(43.863 31.668)" fill="url(#linear-gradient-11)"/>
      <path id="Path_189" data-name="Path 189" d="M115.117,12.745c-8.065.31-16.285,6.824-22.954,15.355-10.7,13.493-14.889,30.864-13.8,47.925l.31,2.016a53.21,53.21,0,0,0,12.563,30.089c8.685,9.616,19.542,16.285,29.468,14.734,18.922-2.792,33.036-21.4,34.9-40.79,18.3-4.653-.465-19.852-.775-19.7-3.257-27.452-9-41.876-21.714-46.374C127.68,13.055,121.476,12.279,115.117,12.745Z" transform="translate(43.555 7.491)" fill="url(#radial-gradient-2)"/>
      <path id="Path_190" data-name="Path 190" d="M117.024,64.891a22.34,22.34,0,0,0,11.012,2.016,1.011,1.011,0,1,0-.155-2.016c-.62.155-13.338,1.706-16.6-10.7a1.129,1.129,0,0,0-2.171.62C110.82,60.393,113.922,63.34,117.024,64.891Z" transform="translate(60.57 29.945)" fill="#001c43"/>
      <path id="Path_191" data-name="Path 191" d="M115.745,32.962c.31.31.775.31.931-.155,6.049-2.792,9,2.171,9.151,2.482a1.4,1.4,0,0,0,1.4.465,1.065,1.065,0,0,0,.465-1.4,8.722,8.722,0,0,0-11.942-3.567c-.62.465-.931.775-.465,1.4C115.435,32.652,115.435,32.962,115.745,32.962Z" transform="translate(63.865 16.896)" fill="#001c43"/>
      <path id="Path_192" data-name="Path 192" d="M116.6,43.408c0,2.326,1.861,4.5,3.877,4.188a4.033,4.033,0,0,0,3.412-4.5c0-2.326-1.861-4.5-3.877-4.188C118,38.911,116.6,40.772,116.6,43.408Z" transform="translate(64.716 21.96)" fill="#001c43"/>
      <path id="Path_193" data-name="Path 193" d="M146.21,4.063a74.371,74.371,0,0,1-27.142,13.959C115.19,18.8,92.7,23.14,89.444,23.916s-6.2,1.086-9,2.792a6.717,6.717,0,0,0-3.1,2.482v-.31A19.049,19.049,0,0,0,71.918,34c-2.326,2.947-4.653,6.049-5.894,9.461a41.939,41.939,0,0,0-1.551,9c-.775,9.771-.775,19.852,1.086,29.623a60.7,60.7,0,0,0,10.547,24.2c.31.31.775,1.241,1.551,2.171a.3.3,0,0,0,.31.31,24.358,24.358,0,0,0,3.722,3.257c8.22,6.049,24.04,11.787,39.395-8.375a19.626,19.626,0,0,0,3.1-6.824c.931-3.412-2.482-6.359-6.2-6.2-6.669.465-16.44-4.963-16.906-13.338s4.808-15.355,11.477-15.975A11.619,11.619,0,0,1,123.1,67.653l.31-.31c0,.31.155.62.155.931s.155.62-.31.775l.31-.31c11.942-11.632,20.473-21.869,28.383-36.293,1.861,3.877,7.29,16.906,6.669,20.628C174.282,33.532,170.87,6.7,159.7,1.116,156.136-.59,151.483.031,146.21,4.063Z" transform="translate(35.727 0.662)" fill="url(#linear-gradient-12)"/>
      <path id="Path_194" data-name="Path 194" d="M102.724,44.775l-.31.31A1.436,1.436,0,0,1,102.569,44,1.686,1.686,0,0,1,102.724,44.775Z" transform="translate(56.879 24.78)" fill="#ff9380"/>
      <path id="Path_195" data-name="Path 195" d="M10.3,190.155c9.616-3.257,30.554,9.616,42.186,19.077,7.6-32.88,19.852-61.108,44.047-77.393,9.306-6.2,13.493-18.612,8.84-28.693-5.118-10.391-16.75-15.355-31.019-8.53h-.31a57.856,57.856,0,0,0-17.836,13.338C29.222,137.887,15.418,174.645,10.3,190.155Z" transform="translate(6.148 50.938)" fill="#10bf98"/>
      <path id="Path_196" data-name="Path 196" d="M10.986,155.406a38.618,38.618,0,0,0-1.4,18.3C15.639,207.208,48.364,281.5,48.364,281.5c-18.457,45.443-5.894,33.346-5.894,33.346,2.016-7.6,6.979-13.338,10.391-16.44.931-.775,2.637-.31,2.482,1.086a66.03,66.03,0,0,1-6.824,25.436l-1.706,2.947c-.155,6.824,6.824.465,6.824.465-1.551,20.007,6.2,13.959,6.2,13.959,16.6-46.529,4.188-67.467,4.188-67.467L44.642,168.589a111.48,111.48,0,0,0-14.734-9.926C23.7,155.1,16.724,153.389,10.986,155.406Z" transform="translate(5.463 85.687)" fill="url(#linear-gradient-13)"/>
    </g>
  </g>
</svg>
