<svg xmlns="http://www.w3.org/2000/svg" xmlns:xlink="http://www.w3.org/1999/xlink" width="956.783" height="742.036" viewBox="0 0 956.783 742.036">
  <defs>
    <linearGradient id="linear-gradient" y1="7.433" x2="0.999" y2="7.433" gradientUnits="objectBoundingBox">
      <stop offset="0" stop-color="#f3f2f1"/>
      <stop offset="0.242" stop-color="#f0f1f1" stop-opacity="0.91"/>
      <stop offset="0.426" stop-color="#e9eeef"/>
      <stop offset="0.591" stop-color="#dbe9ec"/>
      <stop offset="0.744" stop-color="#c7e2e8"/>
      <stop offset="0.889" stop-color="#abd8e2"/>
      <stop offset="1" stop-color="#8bcedd"/>
    </linearGradient>
    <radialGradient id="radial-gradient" cx="0.5" cy="0.5" r="1.1" gradientTransform="matrix(0.794, -0.608, 0.501, 0.655, -0.103, 0.446)" gradientUnits="objectBoundingBox">
      <stop offset="0" stop-color="#5e73e4"/>
      <stop offset="1" stop-color="#3e348e"/>
    </radialGradient>
    <linearGradient id="linear-gradient-2" x1="0.718" y1="3.302" x2="0.243" y2="2.286" gradientUnits="objectBoundingBox">
      <stop offset="0" stop-color="#ff6145"/>
      <stop offset="0.014" stop-color="#ff6145"/>
      <stop offset="0.119" stop-color="#ff735a"/>
      <stop offset="0.27" stop-color="#ff9380"/>
      <stop offset="0.96" stop-color="#ffb6a9"/>
      <stop offset="1" stop-color="#ffb6a9"/>
    </linearGradient>
    <linearGradient id="linear-gradient-3" x1="1.111" y1="1.459" x2="0.305" y2="0.064" gradientUnits="objectBoundingBox">
      <stop offset="0" stop-color="#5e73e4"/>
      <stop offset="1" stop-color="#1f1a47"/>
    </linearGradient>
    <linearGradient id="linear-gradient-4" x1="0.39" y1="0.555" x2="0.19" y2="-0.276" gradientUnits="objectBoundingBox">
      <stop offset="0" stop-color="#5e73e4"/>
      <stop offset="0.729" stop-color="#6f62da"/>
      <stop offset="1" stop-color="#1f1a47"/>
    </linearGradient>
    <radialGradient id="radial-gradient-2" cx="-0.143" cy="1.104" r="1.211" gradientTransform="matrix(-0.871, 0.767, 1.038, 0.642, -11.901, 4.651)" gradientUnits="objectBoundingBox">
      <stop offset="0" stop-color="#3bcd8f"/>
      <stop offset="0.277" stop-color="#3bcd8f"/>
      <stop offset="0.495" stop-color="#26ae74"/>
      <stop offset="0.82" stop-color="#0b8450"/>
      <stop offset="0.987" stop-color="#007442"/>
      <stop offset="1" stop-color="#007442"/>
    </radialGradient>
    <linearGradient id="linear-gradient-5" x1="0.954" y1="5.097" x2="0.203" y2="4.696" gradientUnits="objectBoundingBox">
      <stop offset="0" stop-color="#ff6145"/>
      <stop offset="0.014" stop-color="#ff6145"/>
      <stop offset="0.227" stop-color="#ff735a"/>
      <stop offset="0.535" stop-color="#ff9380"/>
      <stop offset="0.665" stop-color="#ff9987"/>
      <stop offset="0.86" stop-color="#ffab9c"/>
      <stop offset="0.96" stop-color="#ffb6a9"/>
      <stop offset="1" stop-color="#ffb6a9"/>
    </linearGradient>
    <radialGradient id="radial-gradient-3" cx="0.039" cy="0.721" r="1.727" gradientTransform="matrix(-0.243, 0.97, -1.303, -0.327, 0.988, 0.919)" gradientUnits="objectBoundingBox">
      <stop offset="0" stop-color="#ffbeb2"/>
      <stop offset="0.126" stop-color="#ffb7aa"/>
      <stop offset="0.317" stop-color="#ffa595"/>
      <stop offset="0.469" stop-color="#ff9380"/>
      <stop offset="0.686" stop-color="#ff917e"/>
      <stop offset="0.791" stop-color="#ff8b76"/>
      <stop offset="0.872" stop-color="#ff8069"/>
      <stop offset="0.939" stop-color="#ff7057"/>
      <stop offset="0.987" stop-color="#ff6145"/>
      <stop offset="1" stop-color="#ff6145"/>
    </radialGradient>
    <linearGradient id="linear-gradient-6" x1="-0.11" x2="1" y2="0.611" gradientUnits="objectBoundingBox">
      <stop offset="0" stop-color="#2c4655"/>
      <stop offset="1" stop-color="#1f1a47"/>
    </linearGradient>
    <linearGradient id="linear-gradient-7" x1="0.234" y1="1.808" x2="0.784" y2="0.769" xlink:href="#linear-gradient-2"/>
    <linearGradient id="linear-gradient-8" x1="1.084" y1="-4.356" x2="0.121" y2="-3.965" gradientUnits="objectBoundingBox">
      <stop offset="0" stop-color="#a86d46"/>
      <stop offset="0.014" stop-color="#a86d46"/>
      <stop offset="0.183" stop-color="#af7753"/>
      <stop offset="0.51" stop-color="#c49478"/>
      <stop offset="0.624" stop-color="#cc9f88"/>
      <stop offset="1" stop-color="#cc9f88"/>
    </linearGradient>
    <linearGradient id="linear-gradient-9" x1="-0.013" y1="-1.369" x2="1.04" y2="-1.08" gradientUnits="objectBoundingBox">
      <stop offset="0" stop-color="#a86d46"/>
      <stop offset="0.014" stop-color="#a86d46"/>
      <stop offset="0.215" stop-color="#af7753"/>
      <stop offset="0.607" stop-color="#c49478"/>
      <stop offset="0.743" stop-color="#cc9f88"/>
      <stop offset="1" stop-color="#cc9f88"/>
    </linearGradient>
    <linearGradient id="linear-gradient-10" x1="-0.038" y1="-5.664" x2="1.045" y2="-5.367" gradientUnits="objectBoundingBox">
      <stop offset="0" stop-color="#cc9f88"/>
      <stop offset="0.188" stop-color="#cc9f88"/>
      <stop offset="0.254" stop-color="#c49478"/>
      <stop offset="0.445" stop-color="#af7753"/>
      <stop offset="0.543" stop-color="#a86d46"/>
      <stop offset="1" stop-color="#a86d46"/>
    </linearGradient>
    <linearGradient id="linear-gradient-11" x1="0.488" y1="0.565" x2="0.537" y2="1.504" xlink:href="#linear-gradient-8"/>
    <linearGradient id="linear-gradient-12" x1="-0.071" y1="-1.13" x2="0.713" y2="-0.107" gradientUnits="objectBoundingBox">
      <stop offset="0" stop-color="#a86d46"/>
      <stop offset="0.014" stop-color="#a86d46"/>
      <stop offset="0.131" stop-color="#af7753"/>
      <stop offset="0.358" stop-color="#c49478"/>
      <stop offset="0.438" stop-color="#cc9f88"/>
      <stop offset="1" stop-color="#cc9f88"/>
    </linearGradient>
    <linearGradient id="linear-gradient-13" x1="-0.314" y1="-5.89" x2="0.903" y2="-5.292" gradientUnits="objectBoundingBox">
      <stop offset="0" stop-color="#5e73e4"/>
      <stop offset="0.374" stop-color="#6f62da"/>
      <stop offset="0.476" stop-color="#6f62da"/>
      <stop offset="1" stop-color="#1f1a47"/>
    </linearGradient>
    <linearGradient id="linear-gradient-14" x1="0.621" y1="-0.123" x2="0.225" y2="-1.375" xlink:href="#linear-gradient-8"/>
  </defs>
  <g id="man_dog_frisbee" transform="translate(0.5 -100.969)">
    <path id="wolk" d="M526.08,146.511a24.025,24.025,0,0,0,4.173,47.723h82.015a23.993,23.993,0,1,0,0-47.984,24.6,24.6,0,0,0-13.691,4.172A36.4,36.4,0,0,0,562.068,116C543.943,116,528.688,129.3,526.08,146.511Z" transform="translate(153.776 4.568)" fill="url(#linear-gradient)"/>
    <g id="frisbee" transform="translate(200.049 243.314)">
      <path id="Path_200" data-name="Path 200" d="M173.473,308.533a56.441,56.441,0,0,0,78.625-7.041,55.685,55.685,0,1,0-78.625,7.041Z" transform="translate(-153.422 -210.137)" fill="#3e348e"/>
      <path id="Path_201" data-name="Path 201" d="M238.975,226.636a49,49,0,1,1-69.107,6.128C187.6,212.163,218.5,209.425,238.975,226.636Z" transform="translate(-151.903 -208.56)" fill="url(#radial-gradient)"/>
    </g>
    <path id="Path_202" data-name="Path 202" d="M318.6,306.2l34.684-96.619c1.3-3.912,6.128-4.433,8.736-1.434l28.425,35.466-31.424,87.1C348.329,326.674,323.294,314.287,318.6,306.2Z" transform="translate(96.825 31.987)" fill="#10bf98"/>
    <path id="Path_203" data-name="Path 203" d="M243.105,253.292c10.822-7.171,19.559,34.814,19.559,34.814l84.754,7.563,1.174-3.39c.13.261,17.994,13.43,31.424,19.037-6.65,6.389-20.08,24.122-33.119,18.646L256.4,305.97c-25.687-10.562-15.125-37.813-15.125-37.813-19.167,21.384-21.384,14.734-21.384,14.734-2.347-.782.522-5.346,4.955-10.822C232.413,263.593,243.105,253.292,243.105,253.292Z" transform="translate(66.573 46.041)" fill="url(#linear-gradient-2)"/>
    <path id="Path_204" data-name="Path 204" d="M317.5,286.421l1.434-3.521Z" transform="translate(96.49 55.289)" fill="#322b6f"/>
    <path id="Path_205" data-name="Path 205" d="M349.1,353.605s134.954-.261,149.818-35.336L495.267,305.1,359.01,339.132Z" transform="translate(106.094 62.036)" fill="#001c43"/>
    <path id="Path_206" data-name="Path 206" d="M559.055,508.976c-.13-.652-.261-.913-.391-1.565a28.388,28.388,0,0,0-22.818-16.951,14.621,14.621,0,0,1-11.214-6.519l-.652-1.174a18.069,18.069,0,0,0-28.295-1.434,10.58,10.58,0,0,0-2.217.913c-.652.13-1.565.782-2.869,1.174L505.334,502.2c.913-.261,1.565-.391,2.608-.782l45.245,14.734C556.578,517.321,560.62,513.149,559.055,508.976Z" transform="translate(149.096 112.571)" fill="#1f1a47"/>
    <path id="Path_207" data-name="Path 207" d="M405.219,328.332c8.215-3,16.3-5.216,24.122-7.432l45.506,26.6-61.153,73.149-52.026,62.2,70.28,15.777L500.4,513.878l49.157,10.953,9.91,22.949c-17.6.782-33.9,1.173-49.157,1.3-22.3,0-42.377-.652-60.11-1.956-93.359-6.911-122.958-29.6-122.958-29.6-34.684-27.9,15.125-122.828,47.592-176.418A323.348,323.348,0,0,1,405.219,328.332Z" transform="translate(95.872 66.837)" fill="url(#linear-gradient-3)"/>
    <path id="Path_208" data-name="Path 208" d="M556.743,685.8c.261-.391.782-.913,1.043-1.3,5.737-9.258,5.607-20.993.13-30.642a16.144,16.144,0,0,1-1.434-13.821l.652-1.565a19.286,19.286,0,0,0-16.56-25.3,21.291,21.291,0,0,0-2.086-1.174,21.8,21.8,0,0,1-2.608-1.7l-6.78,24.513a23.147,23.147,0,0,1,2.217,1.826l15.908,48.114C548.137,688.534,554,689.708,556.743,685.8Z" transform="translate(160.796 154.787)" fill="#1f1a47"/>
    <path id="Path_209" data-name="Path 209" d="M408.361,322.71a245.182,245.182,0,0,1,66.238-7.693,363.254,363.254,0,0,1-2.347,50.331c-5.476,50.2-3.651,101.574,7.693,150.47,2.608,11.735,6,23.731,9.518,35.205.782,2.608,1.826,5.085,2.608,7.954,18.124,52.286,46.941,105.095,88.665,138.6l-6.259,31.033a70.79,70.79,0,0,1-13.3-10.17c-28.947-28.425-59.719-52.547-76.409-74.583a455.4,455.4,0,0,1-55.285-95.054A465.339,465.339,0,0,1,411.36,500.3a557.225,557.225,0,0,1-18.385-77.973,633.236,633.236,0,0,1-7.041-73.8s1.174-4.564-1.434-18.776C392.454,327.143,400.538,324.535,408.361,322.71Z" transform="translate(116.852 65.028)" fill="url(#linear-gradient-4)"/>
    <path id="Path_210" data-name="Path 210" d="M387.685,186.054c6.389-6,13.821-9.127,21.514-9.127a31.457,31.457,0,0,1,11.474,1.3,32.176,32.176,0,0,1,22.036,21.645c4.3,13.039,23.992,53.46,39.769,91.143,1.173,2.869,2.217,5.607,3.521,8.736,9.649,24.383,16.951,46.68,15.647,58.284l-14.082-.261a248.257,248.257,0,0,0-66.238,7.693A211.119,211.119,0,0,0,397.2,372.9a213.869,213.869,0,0,0-30.251,13.039L351.7,393.635c7.954-16.429,30.251-66.5,18.776-86.318,0,0-10.822-27.512-24.253-47.853-10.822-16.429,1.825-42.246,1.825-42.246Z" transform="translate(103.888 23.049)" fill="url(#radial-gradient-2)"/>
    <path id="Path_211" data-name="Path 211" d="M386.605,182.4,351.4,209.652s8.867,27.773,20.732,36.64C372.132,246.291,393.646,209.912,386.605,182.4Z" transform="translate(106.793 24.747)" fill="#10bf98"/>
    <path id="Path_212" data-name="Path 212" d="M469.168,297.79a52.665,52.665,0,0,1-1.7-7.171c-15.516-37.813-35.336-77.713-39.769-91.143a32.667,32.667,0,0,0-22.036-21.645,30.833,30.833,0,0,0-11.474-1.3,56.717,56.717,0,0,0-2.608,9.388c-2.608,16.69,8.867,30.251,24.774,34.814C435.528,226.205,451.827,265.844,469.168,297.79Z" transform="translate(118.893 22.927)" fill="#1f1a47"/>
    <path id="Path_213" data-name="Path 213" d="M384.287,191.174a41.5,41.5,0,0,1,3.39,5.737c6.52,10.692-12.257,52.156-13.691,52.156-1.7.13-8.084-16.168-8.606-18.124C360.948,218.686,351.3,198.084,335,185.958L353.907,150.1C353.907,149.84,371.118,170.05,384.287,191.174Z" transform="translate(101.809 14.93)" fill="url(#linear-gradient-5)"/>
    <path id="Path_214" data-name="Path 214" d="M317.783,109.07c7.563-2.869,17.733-.13,27.252,5.216,15.256,8.215,25.817,22.688,31.424,38.856l.522,1.956a53.922,53.922,0,0,1,.13,32.728c-4.172,12.257-11.735,22.818-21.514,25.165-18.515,4.824-38.856-6.78-48.244-23.992-18.776,2.869-7.3-18.515-6.911-18.515-7.823-26.73-5.607-42.246,1.956-51.374A35.2,35.2,0,0,1,317.783,109.07Z" transform="translate(89.818 0.957)" fill="url(#radial-gradient-3)"/>
    <path id="Path_215" data-name="Path 215" d="M10.74,10.286a23.538,23.538,0,0,1-9.39,4.686c-.652.1-1.043,0-1.3-.5-.13-.5,0-.8.652-1,.652-.1,12.912-2.792,11.086-12.464-.13-.5.391-.9,1.043-1a1.139,1.139,0,0,1,1.3.8A10.086,10.086,0,0,1,10.74,10.286Z" transform="translate(410.339 177.343) rotate(13)" fill="#001c43"/>
    <path id="Path_216" data-name="Path 216" d="M10.562,1.976c-.261.391-.522.522-.913.261C3,1.976,2.086,7.843,2.217,8.1c-.13.782-.782.913-1.174,1.043C.261,9.017.261,8.626,0,7.974.261,5.105,2.477-.371,9.649.02c.782.13,1.174.391,1.043,1.174C10.822,1.585,10.953,1.845,10.562,1.976Z" transform="matrix(0.995, -0.105, 0.105, 0.995, 388.768, 148.851)" fill="#001c43"/>
    <path id="Path_217" data-name="Path 217" d="M311.794,148.31c.913,2.217,0,4.824-1.956,5.476a4.1,4.1,0,0,1-4.955-2.738c-.913-2.217,0-4.824,1.956-5.476C308.664,144.659,310.75,145.833,311.794,148.31Z" transform="translate(92.548 13.461)" fill="#001c43"/>
    <path id="Path_218" data-name="Path 218" d="M295.4,106.095a74.866,74.866,0,0,0,30.642,2.217c3.912-.782,26.339-5.607,29.6-6.259s6.259-1.434,9.518-.913a7.857,7.857,0,0,1,3.781,1.043l-.13-.261a21.775,21.775,0,0,1,7.041,2.608c3.26,1.825,6.65,3.651,9.127,6.52a38.845,38.845,0,0,1,4.955,7.693c4.564,8.867,8.606,18.124,10.562,28.034a60.4,60.4,0,0,1-.261,26.469c-.261.391-.261,1.434-.652,2.608,0,0,.13.261-.261.391a17.639,17.639,0,0,1-2.217,4.433c-5.216,8.736-17.733,20.21-39.769,7.693a18.789,18.789,0,0,1-5.607-5.085c-2.217-2.869-.13-6.911,3.26-8.215,6.389-2.086,13.3-11.083,10.431-18.907s-10.431-12.387-16.82-10.3a11.4,11.4,0,0,0-7.3,10.04l-.391-.261c.13.261.13.652.261.913s.13.652.522.522l-.391-.261c-15.647-6-27.512-12.126-40.421-22.427-.261,4.172,0,18.515,1.956,21.775-22.166-11.866-29.468-37.944-21.384-47.592C284.574,105.573,289.007,104.4,295.4,106.095Z" transform="translate(84.562 0)" fill="url(#linear-gradient-6)"/>
    <path id="Path_219" data-name="Path 219" d="M326.861,144.152l.391.261c-.13-.261-.13-.652-.652-.913A3.357,3.357,0,0,0,326.861,144.152Z" transform="translate(99.256 12.925)" fill="#ff9380"/>
    <path id="Path_220" data-name="Path 220" d="M508.216,237.239c-10.3.782-24.513,20.732-31.554,34.162-19.95-27.512-42.246-48.636-70.932-54.242-11.083-2.086-19.689-11.866-19.428-23.079.522-11.6,9.518-20.732,25.426-19.95l.261-.13a58.126,58.126,0,0,1,21.775,5.346C470.273,196.427,497.394,224.983,508.216,237.239Z" transform="translate(117.397 22.194)" fill="#10bf98"/>
    <path id="Path_221" data-name="Path 221" d="M485.878,222.5a36.745,36.745,0,0,1,8.475,16.429c7.563,33.38,6.389,114.743,6.389,114.743,34.814,34.814,18.515,28.555,18.515,28.555-4.955-6.259-11.735-9.518-16.038-11.214-1.173-.391-2.608.782-1.956,1.956a65.126,65.126,0,0,0,16.3,20.862l2.608,2.086c2.738,6.128-6.128,3.129-6.128,3.129,9.258,17.994-.261,15.386-.261,15.386-33.641-36.509-30.251-60.762-30.251-60.762L459.8,247.926a101.027,101.027,0,0,1,9.779-14.865C474.013,227.324,479.75,222.891,485.878,222.5Z" transform="translate(139.736 36.933)" fill="url(#linear-gradient-7)"/>
    <g id="dog" transform="translate(-0.5 428.621)">
      <g id="Group_100" data-name="Group 100" transform="translate(181.634 51.314)">
        <path id="Path_222" data-name="Path 222" d="M139.8,358c9.779,9.779,34.553-2.086,36.249,6.78l-7.171,9.518L139.8,380.558Z" transform="translate(-139.8 -358)" fill="#cc9f88"/>
      </g>
      <g id="Group_101" data-name="Group 101" transform="translate(0 0)">
        <path id="Path_225" data-name="Path 225" d="M96.6,514.773l-7.823-20.341S47.31,506.036.5,447.1C.5,447.1,10.41,510.47,96.6,514.773Z" transform="translate(-0.5 -279.608)" fill="url(#linear-gradient-8)"/>
        <g id="Group_99" data-name="Group 99" transform="translate(45.671)">
          <path id="Path_223" data-name="Path 223" d="M137.8,356.9c8.345,9.779,31.033,7.041,35.075,6.52a.974.974,0,0,1,1.3.652c.913,3.26-19.689,9.388-38.074,15.386Z" transform="translate(-4.962 -307.02)" fill="#ae111d"/>
          <path id="Path_224" data-name="Path 224" d="M245,377.661h-.261c-6.65,1.825-11.866,7.563-13.821,14.343l-1.3,4.042-3.26,2.738A130.607,130.607,0,0,1,188.283,420.3c-29.859,10.822-50.983,19.037-50.983,19.037l7.823,22.036c22.949-.13,88.013-49.94,88.013-49.94,17.081-5.085,20.471-18.646,21.123-25.687a7.618,7.618,0,0,0-8.867-8.215A1.312,1.312,0,0,0,245,377.661Z" transform="translate(-4.597 -300.79)" fill="url(#linear-gradient-9)"/>
          <path id="Path_226" data-name="Path 226" d="M92.081,547.7,84.258,545.1a30.859,30.859,0,0,0-33.9,9.649,94.862,94.862,0,0,1-8.867,9.649,19.137,19.137,0,0,0-4.564,20.993c2.217,5.607,5.216,4.564,7.432,2.347a10.622,10.622,0,0,0,2.869-4.694c6.389-19.559,36.118-23.731,36.118-23.731,52.678-10.953,65.586-49.027,64.022-49.288a49.853,49.853,0,0,0-18.646-.13C100.035,515.627,92.081,547.7,92.081,547.7Z" transform="translate(-35.526 -260.774)" fill="url(#linear-gradient-10)"/>
          <path id="Path_227" data-name="Path 227" d="M100.985,384.3l-3.521-6.259A18.778,18.778,0,0,0,100.985,384.3Zm-3.651-6.519a.784.784,0,0,0-.13-.522c0-.261-.391-.522-.391-.782Zm28.034-58.806c-4.042,1.434-7.954,3.912-10.17,7.3-3.781,5.737-3.26,13.169-6.389,19.3-2.477,5.216-7.3,9-10.04,13.952a22.466,22.466,0,0,0-1.7,18.124c4.3,5.868,12.778,7.432,20.08,5.607,7.563-1.825,13.821-6.52,19.95-10.953,3.521-2.738,7.3-5.868,7.693-9.91.261-3.26-1.565-6.389-2.477-9.388a24.446,24.446,0,0,1,.13-14.343c.913-2.738,2.738-5.476,2.738-8.345.261-4.433-2.869-8.475-6.65-10.3a17.6,17.6,0,0,0-10.431-.913C127.324,318.325,126.541,318.717,125.368,318.977Z" transform="translate(-17.178 -318.646)" fill="url(#linear-gradient-11)"/>
          <path id="Path_228" data-name="Path 228" d="M174.211,327.022c-.522.13-1.173.261-1.3.522a12.1,12.1,0,0,0-5.607,4.3l-2.086,3c-6.128,9.127-16.038,14.864-26.73,16.951-13.169,2.869-22.818,15.908-24.9,21.775-5.085,15.256,13.561,27.643,19.95,50.852a63.481,63.481,0,0,1,1.825,13.952,67.475,67.475,0,0,1-3.781,23.47c-.261.391-.13.652-.391,1.173-4.694,14.343-19.3,30.9-32.858,40.291a50.146,50.146,0,0,1-4.955,3C68.986,520.13,65.205,559.9,75.375,616.227c-13.039-14.343-21.123-3.39-24.513,29.338L50.21,660.3s-12,18.907,2.086,28.425c0,0,9,7.563,15.256-2.086A16.477,16.477,0,0,0,66.77,667.6l-1.956-2.478s-6.78-36.248,9.127-32.076c0,0,3.651,16.82,20.471-5.476,0,0,15.386-16.429,20.6-44.854l1.7-1.565s3.39-4.694,15.908-6.389A81.052,81.052,0,0,0,180.079,552.6a73.4,73.4,0,0,0,13.43-17.472c.391-.913,1.043-1.956,1.434-2.869,0,0,28.295-39.9,1.825-85.666,0-.261-.391-.522-.391-.782a127.178,127.178,0,0,1-9.258-17.733c-.391-.782-.652-1.565-1.043-2.477-1.173-3-2.608-6.128-3.912-9.649-.522-1.3-1.174-3-1.825-4.564A15.452,15.452,0,0,1,192.6,390.652a.784.784,0,0,0,.522-.13,14.193,14.193,0,0,0,9.258-4.955c2.086-2.738,2.086-8.866,1.7-12a1.422,1.422,0,0,0-2.217-1.043c-12,5.607-22.818,8.606-29.729,5.607a1.648,1.648,0,0,1-.782-2.477L185.294,353.1c7.432-12.517-1.565-24.122-2.869-24.774a10.934,10.934,0,0,0-7.563-1.174C174.472,326.891,174.472,326.891,174.211,327.022Z" transform="translate(-32.512 -316.128)" fill="url(#linear-gradient-12)"/>
          <path id="Path_229" data-name="Path 229" d="M114.9,417.245c17.342.913,35.075-2.477,52.678-9.519-.391-.782-.652-1.565-1.043-2.477-1.174-3-2.738-6.128-3.912-9.649a109.911,109.911,0,0,1-49.418,7.693A68.1,68.1,0,0,1,114.9,417.245Z" transform="translate(-11.921 -295.259)" fill="url(#linear-gradient-13)"/>
          <path id="Path_230" data-name="Path 230" d="M137.252,458.134a20.642,20.642,0,0,1-10.692,7.954c-4.955,1.565-11.083,1.3-13.691,5.607-2.217,3.39-1.043,8.084-2.608,11.6-1.825,3.912-6.78,5.476-10.953,5.085-3.26-.261-6.911-.913-8.606-3.781a16.564,16.564,0,0,1-1.565-4.694,44.6,44.6,0,0,0-2.608-7.693l-.13-.522c13.561-9.388,27.773-25.817,32.858-40.291.261-.391.13-.652.391-1.173a.784.784,0,0,0,.522-.13,15.639,15.639,0,0,1,4.824.522c4.433,2.086,4.564,8.084,7.563,11.6,1.956,2.477,5.476,3.912,6.52,6.52A11.655,11.655,0,0,1,137.252,458.134Z" transform="translate(-20.066 -284.774)" fill="#b3805d"/>
          <path id="Path_231" data-name="Path 231" d="M166.839,498.907c-.391.913-1.043,1.956-1.434,2.869a80.861,80.861,0,0,1-13.43,17.472c0-.261-.391-.261-.391-.522-3.781,2.738-7.3,5.477-11.083,8.606,6.52-23.47,25.948-43.029,27.512-67.151a72.748,72.748,0,0,0-.782-15.908c-1.043-7.954,10.953-9.388,12.257-1.565C184.05,474.915,166.839,498.907,166.839,498.907Z" transform="translate(-3.625 -282.519)" fill="#b3805d"/>
          <path id="Path_232" data-name="Path 232" d="M144.018,325.936a35.186,35.186,0,0,0-2.869,4.3c-2.347,4.3-1.956,9.127,1.3,10.822,3,1.7,7.563,0,9.91-4.3,2.086-3.912,3.129-7.563.13-11.083-1.825-1.956-3.39-2.217-4.694-1.956A10.5,10.5,0,0,0,144.018,325.936Z" transform="translate(-3.883 -317.129)" fill="#1f1a47"/>
          <path id="Path_233" data-name="Path 233" d="M139.39,450.792c8.606,2.086,21.514,5.737,36.64,9.649a157.36,157.36,0,0,0,51.765,5.216l3-2.347a21.18,21.18,0,0,1,19.95-3.912c3.781,1.3,6.78,3.651,6,8.084-.652,1.043-12,20.732-35.075,12.778,0,0-59.588,2.086-88.8-5.216A12.447,12.447,0,0,1,124,459.659C126.221,453.009,133,449.1,139.39,450.792Z" transform="translate(-8.774 -278.606)" fill="#cc9f88"/>
          <path id="Path_234" data-name="Path 234" d="M122.606,355.382c1.565,2.086,3.912,2.477,5.476,1.3s1.3-3.781-.261-5.737-3.912-2.477-5.476-1.3S121.041,353.3,122.606,355.382Z" transform="translate(-9.462 -309.413)" fill="#1f1a47"/>
          <path id="Path_235" data-name="Path 235" d="M103.534,357.084l-3.39,1.825a19.06,19.06,0,0,0-13.952,17.864c.13,6.389,3,12.257,3.129,18.646,0,5.868-2.738,11.344-4.3,16.82-1.825,6.78-2.217,14.082,1.3,20.08s11.474,9.649,17.6,6.389c4.3-1.956,6.52-6.52,7.954-11.214,1.434-4.433,2.217-9.127,4.3-13.43,1.7-3.26,4.172-5.737,6.128-9.127,7.693-12.909,2.869-29.99-6.519-41.855-3.129-3.781-7.3-7.563-12.126-6.65C103.925,357.084,103.925,357.084,103.534,357.084Z" transform="translate(-20.901 -307.204)" fill="url(#linear-gradient-14)"/>
          <path id="Path_236" data-name="Path 236" d="M161.142,369.59c.13,2.347-1.174,4.564-2.217,6.52-1.7,3-3.521,5.607-4.173,8.736-1.043,3.651-.391,8.475-3.39,10.822-2.738,2.347-7.3,1.174-9.388-1.956-1.956-2.869-1.956-6.911-.913-10.3s3.39-6.52,5.216-9.127a7.571,7.571,0,0,0,1.434-3.129,2.336,2.336,0,0,0-2.217-2.477l1.825-2.738a10.348,10.348,0,0,1,3.521-2.738,7,7,0,0,1,4.042-.261c.261,0,.652.13.913.13C158.534,363.331,161.142,366.33,161.142,369.59Z" transform="translate(-3.665 -305.236)" fill="#d83542"/>
          <path id="Path_237" data-name="Path 237" d="M151.2,372.479h0c1.956-2.086,5.607-7.171,1.043-9.779a21.064,21.064,0,0,0-4.042.261C148.461,363.091,156.284,364.526,151.2,372.479Z" transform="translate(-1.285 -305.257)" fill="#ae111d"/>
        </g>
      </g>
    </g>
    <g id="blad_3" data-name="blad 3" transform="translate(877.828 590.409)">
      <path id="Path_248" data-name="Path 248" d="M688.8,477.854a8.312,8.312,0,0,0-3.912,2.608,7.757,7.757,0,0,0-1.173,4.173,24.1,24.1,0,0,0,.13,4.3,38.7,38.7,0,0,0,14.865,27.643,72.342,72.342,0,0,0,8.084,5.346c1.826.782,3.781,1.565,5.607.782,2.086-.782,2.869-3.651,2.347-5.476-.522-2.217-2.478-3.521-3.912-5.085,4.042,3.781,10.822,2.738,16.3,1.565,5.085-1.3,10.04-3,14.082-5.868,4.172-2.869,7.3-7.3,7.3-12.257-.13-.522,0-1.043-.391-1.434-.782-1.043-2.477-.652-3.651-.261a16.273,16.273,0,0,1-15.125-3.651c.13-1.565.652-3.26,0-4.824-.782-2.086-3.781-2.869-6.389-2.608-2.478.13-5.085,1.173-7.563.522-2.477-.391-4.433-2.217-6.389-3.39A22.23,22.23,0,0,0,688.8,477.854Z" transform="translate(-670.061 -476.335)" fill="#3bcd8f"/>
      <path id="Path_249" data-name="Path 249" d="M673.712,480.114c13.561,10.3,35.075,17.6,52.938,18.255a1.306,1.306,0,1,0,.13-2.608c-8.736-.261-17.733-3-25.948-5.607-8.736-2.869-17.994-6.52-25.035-11.865C674.364,477.115,672.278,478.94,673.712,480.114Z" transform="translate(-673.23 -475.856)" fill="#009161"/>
      <path id="Path_250" data-name="Path 250" d="M693.4,488.6a43.516,43.516,0,0,0,9.91,23.34c1.043,1.3,3.521-.13,2.477-1.434A42.144,42.144,0,0,1,696.27,488.6C696.269,486.9,693.271,486.9,693.4,488.6Z" transform="translate(-667.102 -472.994)" fill="#009161"/>
      <path id="Path_251" data-name="Path 251" d="M702.727,492.931a56.212,56.212,0,0,0,13.169-4.564,1.286,1.286,0,1,0-1.3-2.217,52.977,52.977,0,0,1-12.517,4.433C700.119,490.844,700.771,493.452,702.727,492.931Z" transform="translate(-664.823 -473.417)" fill="#009161"/>
      <path id="Path_252" data-name="Path 252" d="M705.2,492.919a36.143,36.143,0,0,1,11.344,7.041c1.3,1.173,3.39-.913,1.956-2.086a50.263,50.263,0,0,0-12-7.563C704.807,489.92,703.373,492.136,705.2,492.919Z" transform="translate(-663.773 -472.101)" fill="#009161"/>
    </g>
    <g id="blad_2" data-name="blad 2" transform="translate(92.685 130.337)">
      <path id="Path_238" data-name="Path 238" d="M137.344,151.536c1.043-1.7,1.825-3,1.825-4.824a7.953,7.953,0,0,0-1.565-4.433,24.119,24.119,0,0,0-2.869-3.781A42.123,42.123,0,0,0,104.094,123.5a56.519,56.519,0,0,0-10.431.522c-2.086.391-4.3,1.043-5.476,2.869-1.3,2.086-.261,4.955,1.434,6.389,1.825,1.565,4.3,1.434,6.78,1.956-6-.782-11.214,4.433-15.386,9-3.521,4.433-6.911,8.867-8.736,14.082s-1.7,11.083,1.3,15.386c.391.391.652.913,1.3,1.043,1.434.391,2.608-1.043,3.39-2.086a17.938,17.938,0,0,1,15.647-6.389c.913,1.434,1.434,3.26,3.129,4.3,2.086,1.3,5.216,0,7.3-1.7s3.781-4.172,6.389-5.216c2.347-1.173,5.216-.913,7.693-.913A24.888,24.888,0,0,0,137.344,151.536Z" transform="translate(-71.082 -123.492)" fill="#3bcd8f"/>
      <path id="Path_239" data-name="Path 239" d="M146.605,134.2c-18.385-.391-41.986,6.65-58.154,17.472a1.411,1.411,0,1,0,1.565,2.347c7.823-5.346,17.472-8.606,26.469-11.474,9.519-3,19.95-5.607,29.468-5.476C147.779,137.333,148.561,134.464,146.605,134.2Z" transform="translate(-66 -120.241)" fill="#009161"/>
      <path id="Path_240" data-name="Path 240" d="M115.866,142.552A47.8,47.8,0,0,0,92.4,128.209c-1.825-.391-3,2.347-1.3,2.869a45.8,45.8,0,0,1,22.166,13.3C114.431,145.942,117.169,143.986,115.866,142.552Z" transform="translate(-65.25 -122.07)" fill="#009161"/>
      <path id="Path_241" data-name="Path 241" d="M102.27,142.353a57.627,57.627,0,0,0-8.736,12.387,1.407,1.407,0,1,0,2.608,1.043,49.892,49.892,0,0,1,8.215-11.735C105.921,142.614,103.574,140.658,102.27,142.353Z" transform="translate(-64.302 -117.96)" fill="#009161"/>
      <path id="Path_242" data-name="Path 242" d="M100.964,143.008a38.889,38.889,0,0,1-14.473,1.043c-1.956-.13-2.347,2.869-.391,3.129a55.281,55.281,0,0,0,15.386-.913C103.05,145.486,103.05,142.617,100.964,143.008Z" transform="translate(-66.908 -117.572)" fill="#009161"/>
    </g>
    <g id="blad_" data-name="blad " transform="translate(744.891 268.732)">
      <g id="Group_98" data-name="Group 98" transform="translate(0)">
        <path id="Path_243" data-name="Path 243" d="M575.7,279.008a8.7,8.7,0,0,0,.913,4.564A7.461,7.461,0,0,0,580,286.18a18.463,18.463,0,0,0,4.042,1.434,38.432,38.432,0,0,0,31.163-3.651,63.033,63.033,0,0,0,7.954-5.607c1.434-1.3,2.869-2.869,2.869-4.955,0-2.217-2.347-4.042-4.3-4.3-2.217-.261-4.172,1.043-6.259,1.825,5.085-2.477,6.519-9,7.432-14.6.652-5.216.913-10.431-.261-15.256s-4.172-9.518-8.736-11.214c-.522,0-.913-.391-1.434-.13-1.3.391-1.434,2.086-1.7,3.26a16.384,16.384,0,0,1-9,12.778c-1.434-.652-2.738-1.825-4.564-1.825-2.217,0-4.042,2.477-4.824,4.955-.782,2.347-.782,5.216-2.347,7.171-1.3,2.086-3.651,3.39-5.476,4.564A25.148,25.148,0,0,0,575.7,279.008Z" transform="translate(-569.933 -229.631)" fill="#3bcd8f"/>
        <path id="Path_244" data-name="Path 244" d="M573,291.652c14.473-8.866,29.338-26.078,36.509-42.507a1.286,1.286,0,1,0-2.347-1.043c-3.39,8.084-9.258,15.386-14.864,22.036-5.868,7.041-12.648,14.343-20.211,18.907C570.525,289.826,571.437,292.434,573,291.652Z" transform="translate(-571.277 -224.281)" fill="#009161"/>
        <path id="Path_245" data-name="Path 245" d="M588.2,266.782a44,44,0,0,0,25.3-.522c1.565-.522,1.174-3.39-.391-2.738a42.432,42.432,0,0,1-23.861.782C587.549,263.522,586.506,266.391,588.2,266.782Z" transform="translate(-566.396 -219.361)" fill="#009161"/>
        <path id="Path_246" data-name="Path 246" d="M594.587,262.319a55.974,55.974,0,0,0,.652-13.952,1.319,1.319,0,1,0-2.608.391,44.511,44.511,0,0,1-.522,13.169C591.718,264.014,594.326,264.275,594.587,262.319Z" transform="translate(-564.958 -224.286)" fill="#009161"/>
      </g>
      <path id="Path_247" data-name="Path 247" d="M596.535,259.3a35.229,35.229,0,0,1,10.692-7.954c1.565-.782.391-3.39-1.173-2.608a45.919,45.919,0,0,0-11.474,8.475C593.536,258.383,595.1,260.6,596.535,259.3Z" transform="translate(-564.299 -223.87)" fill="#009161"/>
    </g>
  </g>
</svg>
