<svg xmlns="http://www.w3.org/2000/svg" xmlns:xlink="http://www.w3.org/1999/xlink" width="455" height="566.036" viewBox="0 0 455 566.036">
  <defs>
    <linearGradient id="linear-gradient" x1="0.5" x2="0.551" y2="1.267" gradientUnits="objectBoundingBox">
      <stop offset="0" stop-color="#3e348e"/>
      <stop offset="1" stop-color="#5e73e4"/>
    </linearGradient>
    <linearGradient id="linear-gradient-2" x1="0.5" x2="0.598" y2="1.177" gradientUnits="objectBoundingBox">
      <stop offset="0" stop-color="#dfe6fe"/>
      <stop offset="1" stop-color="#5e73e4"/>
    </linearGradient>
    <linearGradient id="linear-gradient-3" x1="0.653" y1="5.661" x2="0.189" y2="4.6" gradientUnits="objectBoundingBox">
      <stop offset="0" stop-color="#ff6145"/>
      <stop offset="0.014" stop-color="#ff6145"/>
      <stop offset="0.119" stop-color="#ff735a"/>
      <stop offset="0.27" stop-color="#ff9380"/>
      <stop offset="0.96" stop-color="#ffb6a9"/>
      <stop offset="1" stop-color="#ffb6a9"/>
    </linearGradient>
    <linearGradient id="linear-gradient-4" x1="0.223" y1="-0.863" x2="1.136" y2="0.5" gradientUnits="objectBoundingBox">
      <stop offset="0" stop-color="#ff6145"/>
      <stop offset="0.27" stop-color="#ff6145"/>
      <stop offset="1" stop-color="#ffb6a9"/>
    </linearGradient>
    <linearGradient id="linear-gradient-5" x1="-1.752" y1="-1.681" x2="0.83" y2="0.5" gradientUnits="objectBoundingBox">
      <stop offset="0" stop-color="#ff6145"/>
      <stop offset="0.29" stop-color="#ff6145"/>
      <stop offset="1" stop-color="#ffb6a9"/>
    </linearGradient>
    <linearGradient id="linear-gradient-6" x1="0.063" y1="1" x2="0.691" gradientUnits="objectBoundingBox">
      <stop offset="0" stop-color="#8bcfde"/>
      <stop offset="0.59" stop-color="#304b5a"/>
      <stop offset="1" stop-color="#1f1a47"/>
    </linearGradient>
    <linearGradient id="linear-gradient-7" x1="1.317" y1="-1.629" x2="0" y2="0.5" gradientUnits="objectBoundingBox">
      <stop offset="0" stop-color="#ff6145"/>
      <stop offset="0.237" stop-color="#ff6145"/>
      <stop offset="1" stop-color="#ffb6a9"/>
    </linearGradient>
    <linearGradient id="linear-gradient-8" x1="2.086" y1="2.123" x2="-0.203" y2="-0.783" gradientUnits="objectBoundingBox">
      <stop offset="0" stop-color="#fac4a1"/>
      <stop offset="1" stop-color="#ff7d68"/>
    </linearGradient>
    <linearGradient id="linear-gradient-9" x1="0.285" y1="4.309" x2="1.125" y2="2.319" xlink:href="#linear-gradient-3"/>
    <linearGradient id="linear-gradient-10" x1="1.327" y1="0.217" x2="-0.157" y2="1.165" gradientUnits="objectBoundingBox">
      <stop offset="0" stop-color="#8bcfde"/>
      <stop offset="1" stop-color="#1f1a47"/>
    </linearGradient>
    <radialGradient id="radial-gradient" cx="0.5" cy="0.343" r="0.51" gradientTransform="matrix(-0.065, 0.998, -1.406, -0.091, 1.014, -0.125)" gradientUnits="objectBoundingBox">
      <stop offset="0" stop-color="#1f1a47"/>
      <stop offset="1" stop-color="#3e348e"/>
    </radialGradient>
    <radialGradient id="radial-gradient-2" cx="0.136" cy="0.166" r="0.924" gradientTransform="matrix(0.996, 0.087, -0.063, 0.723, 0.011, 0.034)" gradientUnits="objectBoundingBox">
      <stop offset="0" stop-color="#3e348e"/>
      <stop offset="1" stop-color="#1f1a47"/>
    </radialGradient>
  </defs>
  <g id="Group_102" data-name="Group 102" transform="translate(-1164.331 -364)">
    <ellipse id="Ellipse_91" data-name="Ellipse 91" cx="227.5" cy="64.5" rx="227.5" ry="64.5" transform="translate(1164.331 801.036)" fill="#dfe6fe"/>
    <g id="woman" transform="translate(1223.169 364)">
      <path id="Path_253" data-name="Path 253" d="M137.615,308.5a4.935,4.935,0,0,1-4.919,3.772l-10-.328a5.237,5.237,0,0,0-2.3.492L70.055,336.21c-4.919,2.3-9.511-3.936-5.575-7.871l42.307-43.455a4.978,4.978,0,0,1,5.739-.984L136.8,295.543a4.865,4.865,0,0,1,2.624,5.575Z" transform="translate(-35.966 159.446)" fill="#1f1a47"/>
      <path id="Path_254" data-name="Path 254" d="M271.259,287.061s5.411-26.073-34.6-36.24c-40.012-10.495-88.058-6.887-88.058-6.887l14.922,43.455Z" transform="translate(18.806 133.819)" fill="url(#linear-gradient)"/>
      <path id="Path_255" data-name="Path 255" d="M151.819,332.869l-16.562-1.148-56.9,26.893c-4.919,2.3-9.511-3.936-5.575-7.871L121.81,300.4l33.78,16.07Z" transform="translate(-30.655 170.33)" fill="#1f1a47"/>
      <path id="Path_256" data-name="Path 256" d="M187.9,225.683l25.581,63.3s110.2-6.231,132.334,27.549-16.234,78.383-96.585,80.843c-80.515,2.788-115.116,1.312-115.116,1.312l-1.64-29.517s-79.2-3.936-27.549-156.767C104.925,212.564,128.538,230.766,187.9,225.683Z" transform="translate(-20.329 114.026)" fill="url(#linear-gradient-2)"/>
      <path id="Path_257" data-name="Path 257" d="M286.233,303.9s-84.123,21.318-171.033,9.019" transform="translate(-2.564 172.57)" fill="none" stroke="#2d4756" stroke-miterlimit="10" stroke-width="1"/>
      <path id="Path_258" data-name="Path 258" d="M191.569,105.041s-4.919,8.2-8.691,13.283l-1.968,14.594-12.955-1.476-.656-18.53s3.444-21.646,4.919-34.928c.656-7.543,17.71-15.742,27.877-18.53,6.067-1.476-2.952,9.183-12.791,14.758C187.142,74.377,187.634,90.611,191.569,105.041Z" transform="translate(30.771 16.079)" fill="url(#linear-gradient-3)"/>
      <path id="Path_259" data-name="Path 259" d="M253.5,119.171a138.825,138.825,0,0,0,6.887,14.43v14.43l13.119.492,2.952-18.2s-.328-21.81.164-35.256c.328-7.543-15.414-18.366-24.761-22.138-5.575-2.46,1.8,9.511,10.495,16.234C262.187,89.326,259.071,105.56,253.5,119.171Z" transform="translate(83.633 24.579)" fill="url(#linear-gradient-4)"/>
      <path id="Path_260" data-name="Path 260" d="M328.179,52.185,197.158,24.8,174.2,134.5l131.022,27.385Z" transform="translate(35.186 -6.004)" fill="#fff"/>
      <circle id="Ellipse_90" data-name="Ellipse 90" cx="30.337" cy="30.337" r="30.337" transform="translate(253.005 55.855)" fill="none" stroke="#3bcd8f" stroke-width="2"/>
      <path id="Path_267" data-name="Path 267" d="M210.9,66.028l8.363,10.987L239.6,61.6" transform="translate(58.667 17.541)" fill="none" stroke="#3bcd8f" stroke-width="2"/>
      <path id="Path_268" data-name="Path 268" d="M263.121,127.68s-8.855-27.549-14.594-37.88c-5.739-10.495,2.952-10.659,10.331-1.968,9.183,10.659,15.414,8.691,15.414,8.691L272.3,112.429Z" transform="translate(81.55 30.337)" fill="url(#linear-gradient-5)"/>
      <path id="Path_269" data-name="Path 269" d="M213.1,42.3a16.079,16.079,0,0,1-9.839-3.608c-15.742-12.627-38.372-22.958-59.034-19.186-21.646,3.936-43.291,21.646-59.2,37.06C68.63,73.129,60.1,95.759,51.9,117.9c-3.28,8.527-6.067,17.546-5.247,26.237,1.64,16.4,16.726,28.369,20.826,44.439,6.067,24.6-15.414,50.67-6.887,74.448,2.46,6.723,6.887,12.627,12.135,17.71a104.9,104.9,0,0,0,64.281,30.829c9.019.984,18.53.82,26.237-3.28C174.071,302.7,180.63,290.9,189.813,282.7c6.067-5.411,13.283-9.511,19.842-14.266,17.054-12.791,29.517-34.764,24.761-55.59-3.28-15.906-15.414-28.041-27.549-38.7-5.247-4.755-10.495-9.839-13.938-15.906s-4.592-14.266-1.476-20.5,10-9.019,15.742-13.119c13.119-8.691,11.661-20.913,14.941-36.327,2.46-12.463,12.116-27.462,5.229-38.285-.656-1.148-1.476-1.8-1.64-2.3A16.871,16.871,0,0,0,213.1,42.3Z" transform="translate(-46.512 -9.895)" fill="url(#linear-gradient-6)"/>
      <path id="Path_270" data-name="Path 270" d="M179.059,114S191.686,87.759,198.9,78.412c7.215-9.675-1.148-10.823-9.839-3.444-10.659,9.183-16.4,6.723-16.4,6.723L172.5,97.926Z" transform="translate(34.098 23.03)" fill="url(#linear-gradient-7)"/>
      <path id="Path_271" data-name="Path 271" d="M203.845,97.04s2.132,58.542-44.931,69.2L139.4,138.363c24.761-9.019,33.452-24.925,38.536-42.963Z" transform="translate(12.92 39.167)" fill="#1f1a47"/>
      <path id="Path_273" data-name="Path 273" d="M113.977,186.176l31.485-9.511s-8.363-28.7,3.28-74.12L113.813,76.8C114.633,76.964,111.517,144.525,113.977,186.176Z" transform="translate(-3.964 27.266)" fill="url(#linear-gradient-8)"/>
      <path id="Path_274" data-name="Path 274" d="M153.49,23.1c-18.038-.328-39.52,24.761-47.719,48.867-2.3-1.64-4.428-2.788-6.559-2.624-7.379,0-10.987,10.823-10.167,19.842,1.476,11.151,9.019,15.906,16.4,18.858,7.543,20.662,25.417,41.979,43.291,40.668,23.613-1.312,42.963-25.089,44.275-49.523,2.46-44.439-6.723-64.117-20.99-71.5C166.772,24.577,160.213,23.265,153.49,23.1Z" transform="translate(-19.372 -7.093)" fill="url(#linear-gradient-9)"/>
      <path id="Path_275" data-name="Path 275" d="M138.424,81.675c-.492,0-.492-.328-.492-.82a.775.775,0,0,1,.82-.82c3.444-.164,3.772-.984,3.772-.984.328-.82-2.788-3.28-6.231-5.247a.991.991,0,0,1,.82-1.8c2.132,1.148,8.035,4.755,7.215,7.707-.328,2.132-3.772,2.3-5.9,2.46C138.916,82.167,138.916,82.167,138.424,81.675Z" transform="translate(10.617 24.195)" fill="#001c43"/>
      <path id="Path_276" data-name="Path 276" d="M130.827,89.5A16.738,16.738,0,0,1,122.3,74.412c0-.82.328-1.312,1.148-1.312s1.312.328,1.312,1.148c.328,14.1,14.922,15.578,15.414,15.906.82,0,1.312.82.984,1.312,0,.82-.82,1.312-1.312.984C139.518,92.614,134.763,91.958,130.827,89.5Z" transform="translate(1.979 24.899)" fill="#001c43"/>
      <path id="Path_277" data-name="Path 277" d="M123.68,66.023c-.656,3.936.328,7.215,2.132,7.543s4.1-2.788,4.755-6.723-.328-7.215-2.132-7.543C126.3,59.464,124.335,62.252,123.68,66.023Z" transform="translate(2.731 16.069)" fill="#001c43"/>
      <path id="Path_278" data-name="Path 278" d="M141.38,70.133c-.656,3.936.328,7.215,2.132,7.543s4.1-2.788,4.755-6.723-.328-7.215-2.132-7.543C144,63.081,142.035,66.2,141.38,70.133Z" transform="translate(14.056 18.683)" fill="#001c43"/>
      <path id="Path_279" data-name="Path 279" d="M121.071,58.84c-.492-.328-.984-1.312-.492-1.64,4.756-6.231,10.987-4.428,13.611-2.788.492.328.492,1.312.492,1.64-.328.492-1.312.984-1.64.492,0,0-5.739-3.936-10.659,2.3Z" transform="translate(0.748 11.938)" fill="#001c43"/>
      <path id="Path_280" data-name="Path 280" d="M149.823,63.286c-.492,0-.492-.328-.492-.82a4.491,4.491,0,0,0-4.919-4.1c-.82,0-1.312-.328-1.312-1.148s.328-1.312,1.148-1.312c5.575-.328,7.543,3.936,7.543,6.067,0,.82-.328,1.312-1.148,1.312Z" transform="translate(15.287 13.887)" fill="#001c43"/>
      <path id="Path_281" data-name="Path 281" d="M169.878,20.417c-8.363-3.444-17.71-2.952-26.237.492C131.506,26.32,111.5,37.635,103.793,54.853c-20.334,44.931,16.4,67.069,16.4,67.069-10.331-23.941-3.772-37.552,4.592-44.439,5.739-5.083,13.774-7.543,21.482-7.543,8.2,0,21.81-1.148,30.173-6.231,2.46,5.083,6.559,9.183,9.675,13.611,5.083,8.363,2.155,23.034,2.5,37.053,5.575-7.215,9.475-23.935,10.623-32.954a37,37,0,0,0,.328-9.511c.164-4.264,0-8.527-1.476-12.3-2.46-5.9-7.871-9.511-13.938-12.135.492-7.379-.492-18.858-12.463-25.581C171.682,21.237,170.7,20.909,169.878,20.417Z" transform="translate(-15.079 -18.067)" fill="url(#linear-gradient-10)"/>
      <path id="Path_282" data-name="Path 282" d="M220.662,144.161s-11.971,103.965-29.189,149.224c0,0-56.738,13.119-83.139-12.791,0,0-25.909-61.329-26.4-106.916C79.637,100.706,123.913,81.848,220.662,144.161Z" transform="translate(-23.903 46.323)" fill="url(#radial-gradient)"/>
      <path id="Path_283" data-name="Path 283" d="M96.3,223.922c27.549,9.183,57.394,11.971,89.206,12.955-.328-.984-.656-1.8-1.8-4.428a28.8,28.8,0,0,1,.492-9.019c-27.877-.82-59.362-4.755-87.4-14.43C97.94,213.264,98.6,218.675,96.3,223.922Z" transform="translate(-14.656 111.851)" fill="#1f1a47"/>
      <path id="Path_284" data-name="Path 284" d="M140.594,110.728c20.826,1.148,43.455,7.543,62.969,32.96,19.514,25.253,29.025,33.452,62.641,35.42,26.073,1.64,57.23-21.974,75.6-68.708l24.105,5.083s-34.764,185.628-198.255,86.911c0,0-44.6-28.861-50.343-41.979C110.093,143.688,111.733,122.863,140.594,110.728Z" transform="translate(-3.524 48.764)" fill="url(#radial-gradient-2)"/>
      <path id="Path_285" data-name="Path 285" d="M124.7,113.055l-15.578-4.919c-.984-1.312.492-3.444,3.608-2.788l29.517,5.9c2.132.328,4.264,1.476,4.428,2.46l.328.82c.164.984-1.312,1.64-3.936,1.312Z" transform="translate(-6.648 45.453)" fill="#1f1a47"/>
    </g>
  </g>
</svg>
