<svg xmlns="http://www.w3.org/2000/svg" xmlns:xlink="http://www.w3.org/1999/xlink" width="199" height="161" viewBox="0 0 199 161">
  <defs>
    <linearGradient id="linear-gradient" x1="0.5" y1="2.771" x2="0.523" gradientUnits="objectBoundingBox">
      <stop offset="0" stop-color="#3e348e"/>
      <stop offset="1" stop-color="#5e73e4"/>
    </linearGradient>
    <linearGradient id="linear-gradient-2" x1="0.5" x2="0.529" y2="1.255" gradientUnits="objectBoundingBox">
      <stop offset="0" stop-color="#3e348e"/>
      <stop offset="0.616" stop-color="#382f84"/>
      <stop offset="1" stop-color="#140e45"/>
    </linearGradient>
    <linearGradient id="linear-gradient-3" x1="0.871" y1="1.25" x2="0.838" y2="-1.262" xlink:href="#linear-gradient-2"/>
    <linearGradient id="linear-gradient-4" x1="0.366" y1="-0.463" x2="0.425" y2="1.153" gradientUnits="objectBoundingBox">
      <stop offset="0" stop-color="#fff"/>
      <stop offset="1" stop-color="#c7d0ef"/>
    </linearGradient>
    <linearGradient id="linear-gradient-5" x1="0.5" y1="1.104" x2="0.684" y2="-0.166" xlink:href="#linear-gradient-4"/>
  </defs>
  <g id="Rodents" transform="translate(-561 -530)">
    <path id="Rectangle_Rodent" data-name="Rectangle Rodent" d="M25,0H174a25,25,0,0,1,25,25V136a25,25,0,0,1-25,25H25A25,25,0,0,1,0,136V25A25,25,0,0,1,25,0Z" transform="translate(561 530)" fill="url(#linear-gradient)"/>
    <text id="rodents-2" data-name="rodents" transform="translate(561 539)" fill="#1f1a47" font-size="18" font-family="OpenSans-Regular, Open Sans"><tspan x="67.011" y="19">rodents</tspan></text>
    <g id="Rodent_svg" data-name="Rodent svg" transform="translate(594.396 591.375)">
      <path id="Path_116" data-name="Path 116" d="M180.075,491.1c35.646,0,64.575-7.992,64.575-17.848S215.77,455.4,180.075,455.4c-35.646,0-64.575,7.992-64.575,17.848C115.549,483.1,144.429,491.1,180.075,491.1Z" transform="translate(-115.5 -407.902)" fill="#1f1a47"/>
      <path id="Path_117" data-name="Path 117" d="M165.777,483.809,162,485.76a22.415,22.415,0,0,0,7.014,4.192,16.706,16.706,0,0,0,7.554-3.943C180.221,482.854,165.777,483.809,165.777,483.809Z" transform="translate(-131.62 -424.041)" fill="#3e348e"/>
      <path id="Path_118" data-name="Path 118" d="M153.163,397.1l-9.463,5.728s.415,2.49,5.105,2.2C148.805,405.028,152.5,404.945,153.163,397.1Z" transform="translate(-120.915 -373.401)" fill="#1f1a47"/>
      <path id="Path_119" data-name="Path 119" d="M317.221,436.9s-3.4,14.568-10.625,20.421a9.37,9.37,0,0,1-1.411,2.324,39.781,39.781,0,0,1-7.886-1.121,21.947,21.947,0,0,1,.332-3.611C298.128,452.132,303.275,440.552,317.221,436.9Z" transform="translate(-210.761 -396.681)" fill="#3e348e"/>
      <path id="Path_120" data-name="Path 120" d="M228.546,371.087a31.077,31.077,0,0,0-27.892-30.921,27.009,27.009,0,0,0-3.2-.166,30.6,30.6,0,0,0-11.871,2.366l-5.4,1.162A36.631,36.631,0,0,0,148.9,362.869s-4.607,9.214-5.147,18.1c-.664,11.082,8.3,20.213,19.051,21.541l1.826.166a179.6,179.6,0,0,0,38.185-.955C218.295,399.975,228.546,387.067,228.546,371.087Z" transform="translate(-120.925 -340)" fill="url(#linear-gradient-2)"/>
      <ellipse id="Ellipse_74" data-name="Ellipse 74" cx="1.868" cy="2.905" rx="1.868" ry="2.905" transform="translate(50.054 34.864)" fill="#140e45"/>
      <circle id="Ellipse_75" data-name="Ellipse 75" cx="0.581" cy="0.581" r="0.581" transform="translate(50.76 36.525)" fill="#dfe6fe"/>
      <ellipse id="Ellipse_76" data-name="Ellipse 76" cx="1.868" cy="2.905" rx="1.868" ry="2.905" transform="translate(29.716 34.864)" fill="#140e45"/>
      <circle id="Ellipse_77" data-name="Ellipse 77" cx="0.581" cy="0.581" r="0.581" transform="translate(30.422 36.525)" fill="#dfe6fe"/>
      <path id="Path_121" data-name="Path 121" d="M250.061,427.894s3.189,21.048-11.379,26.568a47.852,47.852,0,0,1-3.777,4.856s-5.811,1.162-9.5-2.241a25.414,25.414,0,0,1,3.2-1.743c.249-.124,0-7.3,0-7.3Z" transform="translate(-168.705 -388.593)" fill="url(#linear-gradient-3)"/>
      <path id="Path_122" data-name="Path 122" d="M185.827,352a30.337,30.337,0,0,1,20.836,14.859s14.61,27.227-10.916,39.181c0,0,15.979-11.663,5.271-24.073,0,0-.83-17.972-13.282-19.757,0,0,.872,5.728.457,8.467-.581,3.694-4.358,5.52-4.9,7.969a27.38,27.38,0,0,0,.125,10.75s3.154,11.456,6.184,18.221c0,0-1.868,1.038-10.086,2.075,0,0-5.894.415-10.418-3.071,0,0,3.486-23.243,3.569-28.39s-4.109-7.512.415-17.142c0,0,1.785-3.86,3.569-4.981A41.143,41.143,0,0,1,185.827,352Z" transform="translate(-135.773 -347.019)" fill="url(#linear-gradient-4)"/>
      <path id="Path_123" data-name="Path 123" d="M229.645,401.3s9.048,4.483,11.123,6.226a7.424,7.424,0,0,1-5.562,3.528C235.248,411.012,228.607,408.439,229.645,401.3Z" transform="translate(-171.124 -375.857)" fill="#1f1a47"/>
      <ellipse id="Ellipse_78" data-name="Ellipse 78" cx="1.868" cy="1.868" rx="1.868" ry="1.868" transform="translate(37.27 51.218)" fill="#ff8062"/>
      <ellipse id="Ellipse_79" data-name="Ellipse 79" cx="1.868" cy="1.868" rx="1.868" ry="1.868" transform="translate(40.84 51.218)" fill="#ff8062"/>
      <path id="Path_124" data-name="Path 124" d="M243.956,507.17c.5-.581,1.577-2.324,1.577-2.324a2.179,2.179,0,0,0-3.486-.664l-.291,1.038a1.439,1.439,0,0,0-.457,1.079,1.666,1.666,0,0,0,.125.623h0l.789,1.951A11.983,11.983,0,0,0,243.956,507.17Z" transform="translate(-178.006 -435.657)" fill="#3e348e"/>
      <path id="Path_125" data-name="Path 125" d="M226.256,500.7s-2.532,1.287-3.2,1.743h0a.968.968,0,0,0-.291.29h0l-1.37,1.577,2.158.373h.166c.664,0,.83-.125,1.577-.83l1.37-2.158C226.63,501.738,227.211,500.866,226.256,500.7Z" transform="translate(-166.365 -434.001)" fill="#3e348e"/>
      <path id="Path_126" data-name="Path 126" d="M228.966,502.076l-1.785,1.66h0a1.568,1.568,0,0,0-.5,1.121l-.083,2.656a6.9,6.9,0,0,0,2.241-1.245,3.83,3.83,0,0,0,.581-.457c.581-.415,1.411-3.03,1.411-3.03S230.5,501.288,228.966,502.076Z" transform="translate(-169.407 -434.672)" fill="#3e348e"/>
      <path id="Path_127" data-name="Path 127" d="M237.76,503.56a2.007,2.007,0,0,0-3.362-.249l-.457,2.075h0a2.367,2.367,0,0,0-.042.54,19.12,19.12,0,0,0,.83,2.781,8.7,8.7,0,0,0,1.951-1.992c.083-.166.207-.332.291-.54Z" transform="translate(-173.677 -435.035)" fill="#3e348e"/>
      <path id="Path_128" data-name="Path 128" d="M300.081,485.4l.29-1.494c-1-1.909-2.947-.249-2.947-.249l-.125,1.66h0v.166l.249,3.818,2.283-3.03h0c.041-.042.083-.125.125-.166h0a1.742,1.742,0,0,0,.166-.623A.145.145,0,0,1,300.081,485.4Z" transform="translate(-210.763 -423.64)" fill="#3e348e"/>
      <path id="Path_129" data-name="Path 129" d="M310.632,485.183l-.291,1.245h0c0,.083-.042.166-.042.29,0,.041.291,3.694.291,3.694a22.562,22.562,0,0,0,3.569-5.479C313.081,482.775,310.632,485.183,310.632,485.183Z" transform="translate(-218.367 -424.253)" fill="#3e348e"/>
      <path id="Path_130" data-name="Path 130" d="M307.1,484.622c-1.536-2.117-2.947-.374-2.947-.374l-.415,2.241h0c0,.083-.042.208-.042.291l.332,3.9,2.283-3.154a1.393,1.393,0,0,0,.208-.581h0Z" transform="translate(-214.506 -423.983)" fill="#3e348e"/>
      <path id="Path_131" data-name="Path 131" d="M278.678,341.715c5.437,1.785,16.644,13.78,10.542,26.978-3.237,6.973-1.992,13.116-2.2,16.187s2.366,14.361-16.021,17.64c0,0,31.586,1.245,32.042-31.337,0,0,1.121-21.251-20.628-29.3A26.427,26.427,0,0,0,272,340.1,40.013,40.013,0,0,1,278.678,341.715Z" transform="translate(-195.379 -340.055)" fill="url(#linear-gradient-5)"/>
      <path id="Path_132" data-name="Path 132" d="M161.745,487.662a1.16,1.16,0,0,0-1.162-1.162,1.74,1.74,0,0,0-.623.166h0l-3.86,1.992s1.536.955,4.856.083V488.7A1,1,0,0,0,161.745,487.662Z" transform="translate(-128.168 -425.695)" fill="#3e348e"/>
      <path id="Path_133" data-name="Path 133" d="M166.85,489.377a1.576,1.576,0,0,0-1.577-1.577,1.6,1.6,0,0,0-1.121.456h0l-3.652,3.237s3.32.456,5.354-.623A1.577,1.577,0,0,0,166.85,489.377Z" transform="translate(-130.742 -426.455)" fill="#3e348e"/>
      <path id="Path_134" data-name="Path 134" d="M174.92,492.243a1.744,1.744,0,0,0-3.113-1.079h0l-2.407,2.988a10.832,10.832,0,0,0,4.317-.291h0A1.667,1.667,0,0,0,174.92,492.243Z" transform="translate(-135.948 -428.034)" fill="#3e348e"/>
    </g>
  </g>
</svg>
